<svg xmlns="http://www.w3.org/2000/svg" xmlns:xlink="http://www.w3.org/1999/xlink" width="500" zoomAndPan="magnify" viewBox="0 0 375 374.999991" height="500" preserveAspectRatio="xMidYMid meet" version="1.0"><defs><filter x="0%" y="0%" width="100%" height="100%" id="85609b2be2"><feColorMatrix values="0 0 0 0 1 0 0 0 0 1 0 0 0 0 1 0 0 0 1 0" color-interpolation-filters="sRGB"/></filter><g/><clipPath id="d983919c79"><path d="M 72.40625 54.03125 L 286.660156 54.03125 L 286.660156 261.007812 L 72.40625 261.007812 Z M 72.40625 54.03125 " clip-rule="nonzero"/></clipPath><clipPath id="ed056868bd"><path d="M 179.527344 54.03125 C 120.367188 54.03125 72.40625 100.367188 72.40625 157.519531 C 72.40625 214.675781 120.367188 261.007812 179.527344 261.007812 C 238.6875 261.007812 286.648438 214.675781 286.648438 157.519531 C 286.648438 100.367188 238.6875 54.03125 179.527344 54.03125 Z M 179.527344 54.03125 " clip-rule="nonzero"/></clipPath><clipPath id="58aaaeb5c2"><path d="M 0.40625 0.03125 L 214.660156 0.03125 L 214.660156 207.007812 L 0.40625 207.007812 Z M 0.40625 0.03125 " clip-rule="nonzero"/></clipPath><clipPath id="78c2b0d97a"><path d="M 107.527344 0.03125 C 48.367188 0.03125 0.40625 46.367188 0.40625 103.519531 C 0.40625 160.675781 48.367188 207.007812 107.527344 207.007812 C 166.6875 207.007812 214.648438 160.675781 214.648438 103.519531 C 214.648438 46.367188 166.6875 0.03125 107.527344 0.03125 Z M 107.527344 0.03125 " clip-rule="nonzero"/></clipPath><clipPath id="4d07282e2e"><rect x="0" width="215" y="0" height="208"/></clipPath><clipPath id="d40adb88fe"><path d="M 211.933594 115.648438 L 317.59375 115.648438 L 317.59375 217.71875 L 211.933594 217.71875 Z M 211.933594 115.648438 " clip-rule="nonzero"/></clipPath><clipPath id="b8fff1f3b6"><path d="M 264.761719 115.648438 C 235.585938 115.648438 211.933594 138.496094 211.933594 166.683594 C 211.933594 194.871094 235.585938 217.71875 264.761719 217.71875 C 293.9375 217.71875 317.589844 194.871094 317.589844 166.683594 C 317.589844 138.496094 293.9375 115.648438 264.761719 115.648438 Z M 264.761719 115.648438 " clip-rule="nonzero"/></clipPath><clipPath id="a19053825f"><path d="M 0.933594 0.648438 L 106.59375 0.648438 L 106.59375 102.71875 L 0.933594 102.71875 Z M 0.933594 0.648438 " clip-rule="nonzero"/></clipPath><clipPath id="ae782e10d4"><path d="M 53.761719 0.648438 C 24.585938 0.648438 0.933594 23.496094 0.933594 51.683594 C 0.933594 79.871094 24.585938 102.71875 53.761719 102.71875 C 82.9375 102.71875 106.589844 79.871094 106.589844 51.683594 C 106.589844 23.496094 82.9375 0.648438 53.761719 0.648438 Z M 53.761719 0.648438 " clip-rule="nonzero"/></clipPath><clipPath id="5a51922f24"><rect x="0" width="107" y="0" height="103"/></clipPath><clipPath id="a61c158178"><path d="M 142.746094 155.925781 L 233.78125 155.925781 L 233.78125 190.9375 L 142.746094 190.9375 Z M 142.746094 155.925781 " clip-rule="nonzero"/></clipPath><clipPath id="274b71095c"><path d="M 0.746094 0.925781 L 91.78125 0.925781 L 91.78125 35.9375 L 0.746094 35.9375 Z M 0.746094 0.925781 " clip-rule="nonzero"/></clipPath><clipPath id="d68ee3fe65"><rect x="0" width="92" y="0" height="36"/></clipPath><clipPath id="ba20204a00"><path d="M 105.734375 163.214844 L 275.714844 163.214844 L 275.714844 297.519531 L 105.734375 297.519531 Z M 105.734375 163.214844 " clip-rule="nonzero"/></clipPath><clipPath id="f7f2cd9875"><path d="M 112.484375 163.214844 L 268.890625 163.214844 C 272.621094 163.214844 275.640625 166.238281 275.640625 169.964844 L 275.640625 290.769531 C 275.640625 294.496094 272.621094 297.519531 268.890625 297.519531 L 112.484375 297.519531 C 108.757812 297.519531 105.734375 294.496094 105.734375 290.769531 L 105.734375 169.964844 C 105.734375 166.238281 108.757812 163.214844 112.484375 163.214844 Z M 112.484375 163.214844 " clip-rule="nonzero"/></clipPath><clipPath id="39ad189581"><path d="M 0.734375 0.214844 L 170.714844 0.214844 L 170.714844 134.519531 L 0.734375 134.519531 Z M 0.734375 0.214844 " clip-rule="nonzero"/></clipPath><clipPath id="135c11eba9"><path d="M 7.484375 0.214844 L 163.890625 0.214844 C 167.621094 0.214844 170.640625 3.238281 170.640625 6.964844 L 170.640625 127.769531 C 170.640625 131.496094 167.621094 134.519531 163.890625 134.519531 L 7.484375 134.519531 C 3.757812 134.519531 0.734375 131.496094 0.734375 127.769531 L 0.734375 6.964844 C 0.734375 3.238281 3.757812 0.214844 7.484375 0.214844 Z M 7.484375 0.214844 " clip-rule="nonzero"/></clipPath><clipPath id="b4ef9b9f32"><rect x="0" width="171" y="0" height="135"/></clipPath><clipPath id="cb597f401f"><rect x="0" width="117" y="0" height="136"/></clipPath><clipPath id="fdfb848d82"><rect x="0" width="116" y="0" height="137"/></clipPath><clipPath id="8b392942d0"><path d="M 99.359375 155.925781 L 267.988281 155.925781 L 267.988281 286.746094 L 99.359375 286.746094 Z M 99.359375 155.925781 " clip-rule="nonzero"/></clipPath><clipPath id="9f36d4adce"><path d="M 106.109375 155.925781 L 261.019531 155.925781 C 264.75 155.925781 267.769531 158.949219 267.769531 162.675781 L 267.769531 279.996094 C 267.769531 283.722656 264.75 286.746094 261.019531 286.746094 L 106.109375 286.746094 C 102.378906 286.746094 99.359375 283.722656 99.359375 279.996094 L 99.359375 162.675781 C 99.359375 158.949219 102.378906 155.925781 106.109375 155.925781 Z M 106.109375 155.925781 " clip-rule="nonzero"/></clipPath><clipPath id="8ec1f6f58b"><path d="M 0.359375 0.925781 L 168.839844 0.925781 L 168.839844 131.746094 L 0.359375 131.746094 Z M 0.359375 0.925781 " clip-rule="nonzero"/></clipPath><clipPath id="91794a3976"><path d="M 7.109375 0.925781 L 162.019531 0.925781 C 165.75 0.925781 168.769531 3.949219 168.769531 7.675781 L 168.769531 124.996094 C 168.769531 128.722656 165.75 131.746094 162.019531 131.746094 L 7.109375 131.746094 C 3.378906 131.746094 0.359375 128.722656 0.359375 124.996094 L 0.359375 7.675781 C 0.359375 3.949219 3.378906 0.925781 7.109375 0.925781 Z M 7.109375 0.925781 " clip-rule="nonzero"/></clipPath><clipPath id="95d5b4a7fc"><rect x="0" width="169" y="0" height="132"/></clipPath><clipPath id="e4bf5200ac"><path d="M 99.359375 155.925781 L 267.894531 155.925781 L 267.894531 286.425781 L 99.359375 286.425781 Z M 99.359375 155.925781 " clip-rule="nonzero"/></clipPath><clipPath id="e6fce09ce8"><path d="M 106.109375 155.925781 L 261.019531 155.925781 C 264.746094 155.925781 267.769531 158.949219 267.769531 162.675781 L 267.769531 279.992188 C 267.769531 283.722656 264.746094 286.742188 261.019531 286.742188 L 106.109375 286.742188 C 102.378906 286.742188 99.359375 283.722656 99.359375 279.992188 L 99.359375 162.675781 C 99.359375 158.949219 102.378906 155.925781 106.109375 155.925781 Z M 106.109375 155.925781 " clip-rule="nonzero"/></clipPath><clipPath id="88764a80c6"><path d="M 105.296875 158.78125 L 262.566406 158.78125 L 262.566406 281.152344 L 105.296875 281.152344 Z M 105.296875 158.78125 " clip-rule="nonzero"/></clipPath><clipPath id="485204ff3f"><path d="M 109.796875 158.78125 L 257.765625 158.78125 C 260.253906 158.78125 262.265625 160.792969 262.265625 163.28125 L 262.265625 276.652344 C 262.265625 279.136719 260.253906 281.152344 257.765625 281.152344 L 109.796875 281.152344 C 107.3125 281.152344 105.296875 279.136719 105.296875 276.652344 L 105.296875 163.28125 C 105.296875 160.792969 107.3125 158.78125 109.796875 158.78125 Z M 109.796875 158.78125 " clip-rule="nonzero"/></clipPath><clipPath id="29d5940b64"><path d="M 0.296875 0.78125 L 157.320312 0.78125 L 157.320312 123.152344 L 0.296875 123.152344 Z M 0.296875 0.78125 " clip-rule="nonzero"/></clipPath><clipPath id="4734904452"><path d="M 4.796875 0.78125 L 152.765625 0.78125 C 155.253906 0.78125 157.265625 2.792969 157.265625 5.28125 L 157.265625 118.652344 C 157.265625 121.136719 155.253906 123.152344 152.765625 123.152344 L 4.796875 123.152344 C 2.3125 123.152344 0.296875 121.136719 0.296875 118.652344 L 0.296875 5.28125 C 0.296875 2.792969 2.3125 0.78125 4.796875 0.78125 Z M 4.796875 0.78125 " clip-rule="nonzero"/></clipPath><clipPath id="caae170759"><rect x="0" width="158" y="0" height="124"/></clipPath><mask id="0a2ded159f"><g filter="url(#85609b2be2)"><rect x="-37.5" width="450" fill="#000000" y="-37.499999" height="449.999989" fill-opacity="0.78"/></g></mask><clipPath id="33d6fb9e45"><path d="M 0.0820312 0.214844 L 159.769531 0.214844 L 159.769531 123.746094 L 0.0820312 123.746094 Z M 0.0820312 0.214844 " clip-rule="nonzero"/></clipPath><clipPath id="8eebd5eda2"><path d="M 0.0820312 0.214844 L 159.769531 0.214844 L 159.769531 123.746094 L 0.0820312 123.746094 Z M 0.0820312 0.214844 " clip-rule="nonzero"/></clipPath><clipPath id="4ae7faae13"><rect x="0" width="160" y="0" height="124"/></clipPath><clipPath id="64f27daa0e"><rect x="0" width="160" y="0" height="124"/></clipPath><clipPath id="d3101fc3d7"><path d="M 108.082031 163.214844 L 262.414062 163.214844 L 262.414062 281.152344 L 108.082031 281.152344 Z M 108.082031 163.214844 " clip-rule="nonzero"/></clipPath><clipPath id="cf4798594d"><path d="M 111.832031 163.214844 L 258.515625 163.214844 C 260.589844 163.214844 262.265625 164.894531 262.265625 166.964844 L 262.265625 277.402344 C 262.265625 279.472656 260.589844 281.152344 258.515625 281.152344 L 111.832031 281.152344 C 109.761719 281.152344 108.082031 279.472656 108.082031 277.402344 L 108.082031 166.964844 C 108.082031 164.894531 109.761719 163.214844 111.832031 163.214844 Z M 111.832031 163.214844 " clip-rule="nonzero"/></clipPath><clipPath id="227b196654"><path d="M 0.0820312 0.214844 L 154.320312 0.214844 L 154.320312 118.152344 L 0.0820312 118.152344 Z M 0.0820312 0.214844 " clip-rule="nonzero"/></clipPath><clipPath id="eb73ae2a25"><path d="M 3.832031 0.214844 L 150.515625 0.214844 C 152.589844 0.214844 154.265625 1.894531 154.265625 3.964844 L 154.265625 114.402344 C 154.265625 116.472656 152.589844 118.152344 150.515625 118.152344 L 3.832031 118.152344 C 1.761719 118.152344 0.0820312 116.472656 0.0820312 114.402344 L 0.0820312 3.964844 C 0.0820312 1.894531 1.761719 0.214844 3.832031 0.214844 Z M 3.832031 0.214844 " clip-rule="nonzero"/></clipPath><clipPath id="b1c8337304"><rect x="0" width="155" y="0" height="119"/></clipPath><clipPath id="a457e34138"><path d="M 108.082031 163.214844 L 260.085938 163.214844 L 260.085938 278.683594 L 108.082031 278.683594 Z M 108.082031 163.214844 " clip-rule="nonzero"/></clipPath><clipPath id="ae1e1f4d2b"><path d="M 112.582031 163.214844 L 255.523438 163.214844 C 258.007812 163.214844 260.023438 165.230469 260.023438 167.714844 L 260.023438 274.183594 C 260.023438 276.671875 258.007812 278.683594 255.523438 278.683594 L 112.582031 278.683594 C 110.097656 278.683594 108.082031 276.671875 108.082031 274.183594 L 108.082031 167.714844 C 108.082031 165.230469 110.097656 163.214844 112.582031 163.214844 Z M 112.582031 163.214844 " clip-rule="nonzero"/></clipPath><clipPath id="ac943e6185"><path d="M 0.0820312 0.214844 L 152.085938 0.214844 L 152.085938 115.683594 L 0.0820312 115.683594 Z M 0.0820312 0.214844 " clip-rule="nonzero"/></clipPath><clipPath id="0538eb5df9"><path d="M 4.582031 0.214844 L 147.523438 0.214844 C 150.007812 0.214844 152.023438 2.230469 152.023438 4.714844 L 152.023438 111.183594 C 152.023438 113.671875 150.007812 115.683594 147.523438 115.683594 L 4.582031 115.683594 C 2.097656 115.683594 0.0820312 113.671875 0.0820312 111.183594 L 0.0820312 4.714844 C 0.0820312 2.230469 2.097656 0.214844 4.582031 0.214844 Z M 4.582031 0.214844 " clip-rule="nonzero"/></clipPath><clipPath id="55bd9cf697"><rect x="0" width="153" y="0" height="116"/></clipPath><clipPath id="bacc581023"><path d="M 108.382812 164.90625 L 185.464844 164.90625 L 185.464844 226.765625 L 108.382812 226.765625 Z M 108.382812 164.90625 " clip-rule="nonzero"/></clipPath><clipPath id="c4c8c0ae4e"><path d="M 185.464844 169.40625 L 185.464844 222.265625 C 185.464844 224.753906 183.449219 226.765625 180.964844 226.765625 L 112.976562 226.765625 C 110.492188 226.765625 108.476562 224.753906 108.476562 222.265625 L 108.476562 169.40625 C 108.476562 166.921875 110.492188 164.90625 112.976562 164.90625 L 180.964844 164.90625 C 183.449219 164.90625 185.464844 166.921875 185.464844 169.40625 Z M 185.464844 169.40625 " clip-rule="nonzero"/></clipPath><clipPath id="22cec994f6"><path d="M 0.382812 0.90625 L 77.464844 0.90625 L 77.464844 62.765625 L 0.382812 62.765625 Z M 0.382812 0.90625 " clip-rule="nonzero"/></clipPath><clipPath id="fe6fabfb84"><path d="M 77.464844 5.40625 L 77.464844 58.265625 C 77.464844 60.753906 75.449219 62.765625 72.964844 62.765625 L 4.976562 62.765625 C 2.492188 62.765625 0.476562 60.753906 0.476562 58.265625 L 0.476562 5.40625 C 0.476562 2.921875 2.492188 0.90625 4.976562 0.90625 L 72.964844 0.90625 C 75.449219 0.90625 77.464844 2.921875 77.464844 5.40625 Z M 77.464844 5.40625 " clip-rule="nonzero"/></clipPath><clipPath id="946dd9e1ae"><rect x="0" width="78" y="0" height="63"/></clipPath><clipPath id="cac915fc89"><path d="M 185.347656 163.117188 L 260.015625 163.117188 L 260.015625 224.976562 L 185.347656 224.976562 Z M 185.347656 163.117188 " clip-rule="nonzero"/></clipPath><clipPath id="0141334e6c"><path d="M 260.015625 167.617188 L 260.015625 220.476562 C 260.015625 222.964844 258 224.976562 255.515625 224.976562 L 189.960938 224.976562 C 187.476562 224.976562 185.460938 222.964844 185.460938 220.476562 L 185.460938 167.617188 C 185.460938 165.132812 187.476562 163.117188 189.960938 163.117188 L 255.515625 163.117188 C 258 163.117188 260.015625 165.132812 260.015625 167.617188 Z M 260.015625 167.617188 " clip-rule="nonzero"/></clipPath><clipPath id="24e226396c"><path d="M 0.347656 0.117188 L 75.015625 0.117188 L 75.015625 61.976562 L 0.347656 61.976562 Z M 0.347656 0.117188 " clip-rule="nonzero"/></clipPath><clipPath id="26529c2c94"><path d="M 75.015625 4.617188 L 75.015625 57.476562 C 75.015625 59.964844 73 61.976562 70.515625 61.976562 L 4.960938 61.976562 C 2.476562 61.976562 0.460938 59.964844 0.460938 57.476562 L 0.460938 4.617188 C 0.460938 2.132812 2.476562 0.117188 4.960938 0.117188 L 70.515625 0.117188 C 73 0.117188 75.015625 2.132812 75.015625 4.617188 Z M 75.015625 4.617188 " clip-rule="nonzero"/></clipPath><clipPath id="d3aa73b658"><rect x="0" width="76" y="0" height="62"/></clipPath><clipPath id="d5fd229241"><path d="M 108.328125 222.21875 L 261.5625 222.21875 L 261.5625 276.625 L 108.328125 276.625 Z M 108.328125 222.21875 " clip-rule="nonzero"/></clipPath><clipPath id="e7d148b3f3"><path d="M 184.953125 276.625 L 108.347656 222.316406 L 261.5625 222.316406 Z M 184.953125 276.625 " clip-rule="nonzero"/></clipPath><clipPath id="b4355eafc4"><path d="M 0.328125 0.238281 L 153.5625 0.238281 L 153.5625 54.625 L 0.328125 54.625 Z M 0.328125 0.238281 " clip-rule="nonzero"/></clipPath><clipPath id="c6403a81d8"><path d="M 76.953125 54.625 L 0.347656 0.316406 L 153.5625 0.316406 Z M 76.953125 54.625 " clip-rule="nonzero"/></clipPath><clipPath id="54fdaee305"><rect x="0" width="154" y="0" height="55"/></clipPath><clipPath id="c96c81fc35"><path d="M 108.355469 221.332031 L 198.460938 221.332031 L 198.460938 254.910156 L 108.355469 254.910156 Z M 108.355469 221.332031 " clip-rule="nonzero"/></clipPath><clipPath id="2380a7e322"><path d="M 153.433594 254.910156 L 108.40625 221.394531 L 198.460938 221.394531 Z M 153.433594 254.910156 " clip-rule="nonzero"/></clipPath><clipPath id="035f73963d"><path d="M 0.355469 0.332031 L 90.460938 0.332031 L 90.460938 33.910156 L 0.355469 33.910156 Z M 0.355469 0.332031 " clip-rule="nonzero"/></clipPath><clipPath id="3e15c22afb"><path d="M 45.433594 33.910156 L 0.40625 0.394531 L 90.460938 0.394531 Z M 45.433594 33.910156 " clip-rule="nonzero"/></clipPath><clipPath id="bd75e1bb02"><rect x="0" width="91" y="0" height="34"/></clipPath><clipPath id="08bff9c0b1"><path d="M 108.050781 191.804688 L 186.792969 191.804688 L 186.792969 223.699219 L 108.050781 223.699219 Z M 108.050781 191.804688 " clip-rule="nonzero"/></clipPath><clipPath id="a736309512"><path d="M 147.394531 191.804688 L 186.738281 223.640625 L 108.050781 223.640625 Z M 147.394531 191.804688 " clip-rule="nonzero"/></clipPath><clipPath id="2d4ba58259"><path d="M 0.0507812 0.804688 L 78.792969 0.804688 L 78.792969 32.679688 L 0.0507812 32.679688 Z M 0.0507812 0.804688 " clip-rule="nonzero"/></clipPath><clipPath id="fff75f4e1a"><path d="M 39.394531 0.804688 L 78.738281 32.640625 L 0.0507812 32.640625 Z M 39.394531 0.804688 " clip-rule="nonzero"/></clipPath><clipPath id="a9a1bf77bb"><rect x="0" width="79" y="0" height="33"/></clipPath><clipPath id="e9030d7fb2"><path d="M 108 223 L 183 223 L 183 278 L 108 278 Z M 108 223 " clip-rule="nonzero"/></clipPath><clipPath id="f6efc18726"><path d="M 127.640625 196.863281 L 202.152344 250.929688 L 182.847656 277.53125 L 108.335938 223.464844 Z M 127.640625 196.863281 " clip-rule="nonzero"/></clipPath><clipPath id="77c347efbe"><path d="M 164.847656 223.859375 L 182.78125 277.414062 L 108.371094 223.417969 Z M 164.847656 223.859375 " clip-rule="nonzero"/></clipPath><clipPath id="5f481d1eb7"><path d="M 0.238281 0.199219 L 74.878906 0.199219 L 74.878906 54.441406 L 0.238281 54.441406 Z M 0.238281 0.199219 " clip-rule="nonzero"/></clipPath><clipPath id="81a53ad8f2"><path d="M 19.640625 -26.136719 L 94.152344 27.929688 L 74.847656 54.53125 L 0.335938 0.464844 Z M 19.640625 -26.136719 " clip-rule="nonzero"/></clipPath><clipPath id="ee0a29dba7"><path d="M 56.847656 0.859375 L 74.78125 54.414062 L 0.371094 0.417969 Z M 56.847656 0.859375 " clip-rule="nonzero"/></clipPath><clipPath id="27b12ef1ea"><rect x="0" width="75" y="0" height="55"/></clipPath><clipPath id="4f929a60bb"><path d="M 145.480469 191.75 L 183.566406 191.75 L 183.566406 278.777344 L 145.480469 278.777344 Z M 145.480469 191.75 " clip-rule="nonzero"/></clipPath><clipPath id="246440b5e3"><path d="M 145.480469 235.289062 L 183.496094 191.796875 L 183.496094 278.777344 Z M 145.480469 235.289062 " clip-rule="nonzero"/></clipPath><clipPath id="3869be316b"><path d="M 0.480469 0.761719 L 38.566406 0.761719 L 38.566406 87.777344 L 0.480469 87.777344 Z M 0.480469 0.761719 " clip-rule="nonzero"/></clipPath><clipPath id="88badda871"><path d="M 0.480469 44.289062 L 38.496094 0.796875 L 38.496094 87.777344 Z M 0.480469 44.289062 " clip-rule="nonzero"/></clipPath><clipPath id="37fcc99f3c"><rect x="0" width="39" y="0" height="88"/></clipPath><clipPath id="838cf91d15"><path d="M 108.828125 164.90625 L 146.570312 164.90625 L 146.570312 222.253906 L 108.828125 222.253906 Z M 108.828125 164.90625 " clip-rule="nonzero"/></clipPath><clipPath id="3a072a0e0e"><path d="M 146.570312 193.5625 L 108.894531 222.214844 L 108.894531 164.90625 Z M 146.570312 193.5625 " clip-rule="nonzero"/></clipPath><clipPath id="af827b9fb0"><path d="M 0.828125 0.90625 L 38.570312 0.90625 L 38.570312 58.238281 L 0.828125 58.238281 Z M 0.828125 0.90625 " clip-rule="nonzero"/></clipPath><clipPath id="9523e89702"><path d="M 38.570312 29.5625 L 0.894531 58.214844 L 0.894531 0.90625 Z M 38.570312 29.5625 " clip-rule="nonzero"/></clipPath><clipPath id="60ef85a7b7"><rect x="0" width="39" y="0" height="59"/></clipPath><clipPath id="19754eae29"><path d="M 108.746094 164.894531 L 183.996094 164.894531 L 183.996094 194.039062 L 108.746094 194.039062 Z M 108.746094 164.894531 " clip-rule="nonzero"/></clipPath><clipPath id="7b12255b10"><path d="M 146.417969 194.039062 L 108.839844 164.949219 L 183.996094 164.949219 Z M 146.417969 194.039062 " clip-rule="nonzero"/></clipPath><clipPath id="778404b22f"><path d="M 0.746094 0.894531 L 75.996094 0.894531 L 75.996094 30.039062 L 0.746094 30.039062 Z M 0.746094 0.894531 " clip-rule="nonzero"/></clipPath><clipPath id="8c6a93d160"><path d="M 38.417969 30.039062 L 0.839844 0.949219 L 75.996094 0.949219 Z M 38.417969 30.039062 " clip-rule="nonzero"/></clipPath><clipPath id="44ae9f3dbb"><rect x="0" width="76" y="0" height="31"/></clipPath><clipPath id="f44e2b2dc7"><path d="M 146.261719 164.828125 L 184 164.828125 L 184 222.179688 L 146.261719 222.179688 Z M 146.261719 164.828125 " clip-rule="nonzero"/></clipPath><clipPath id="e093f0b9e2"><path d="M 146.261719 193.523438 L 183.933594 164.867188 L 183.933594 222.179688 Z M 146.261719 193.523438 " clip-rule="nonzero"/></clipPath><clipPath id="809dcce7f8"><path d="M 0.261719 0.828125 L 38 0.828125 L 38 58.179688 L 0.261719 58.179688 Z M 0.261719 0.828125 " clip-rule="nonzero"/></clipPath><clipPath id="7e29b2288d"><path d="M 0.261719 29.523438 L 37.933594 0.867188 L 37.933594 58.179688 Z M 0.261719 29.523438 " clip-rule="nonzero"/></clipPath><clipPath id="e834bda619"><rect x="0" width="38" y="0" height="59"/></clipPath><clipPath id="814d684c22"><path d="M 183.011719 194.167969 L 222.742188 194.167969 L 222.742188 278.75 L 183.011719 278.75 Z M 183.011719 194.167969 " clip-rule="nonzero"/></clipPath><clipPath id="18d0fdd861"><path d="M 222.742188 236.421875 L 183.082031 278.679688 L 183.082031 194.167969 Z M 222.742188 236.421875 " clip-rule="nonzero"/></clipPath><clipPath id="df043e2ada"><path d="M 0.0117188 0.167969 L 39.742188 0.167969 L 39.742188 84.75 L 0.0117188 84.75 Z M 0.0117188 0.167969 " clip-rule="nonzero"/></clipPath><clipPath id="e95390bbb8"><path d="M 39.742188 42.421875 L 0.0820312 84.679688 L 0.0820312 0.167969 Z M 39.742188 42.421875 " clip-rule="nonzero"/></clipPath><clipPath id="9fe17f8c24"><rect x="0" width="40" y="0" height="85"/></clipPath><clipPath id="2c026ee4da"><path d="M 183.011719 164.863281 L 220.75 164.863281 L 220.75 222.210938 L 183.011719 222.210938 Z M 183.011719 164.863281 " clip-rule="nonzero"/></clipPath><clipPath id="17958ae1a9"><path d="M 220.75 193.515625 L 183.078125 222.171875 L 183.078125 164.863281 Z M 220.75 193.515625 " clip-rule="nonzero"/></clipPath><clipPath id="2a78cdd0bf"><path d="M 0.0117188 0.863281 L 37.75 0.863281 L 37.75 58.210938 L 0.0117188 58.210938 Z M 0.0117188 0.863281 " clip-rule="nonzero"/></clipPath><clipPath id="b273079b0a"><path d="M 37.75 29.515625 L 0.078125 58.171875 L 0.078125 0.863281 Z M 37.75 29.515625 " clip-rule="nonzero"/></clipPath><clipPath id="40d97ab744"><rect x="0" width="38" y="0" height="59"/></clipPath><clipPath id="8b63da8b22"><path d="M 183.085938 164.851562 L 258.335938 164.851562 L 258.335938 193.996094 L 183.085938 193.996094 Z M 183.085938 164.851562 " clip-rule="nonzero"/></clipPath><clipPath id="11a13f248d"><path d="M 220.757812 193.996094 L 183.183594 164.90625 L 258.335938 164.90625 Z M 220.757812 193.996094 " clip-rule="nonzero"/></clipPath><clipPath id="6337897f90"><path d="M 0.121094 0.878906 L 75.335938 0.878906 L 75.335938 29.996094 L 0.121094 29.996094 Z M 0.121094 0.878906 " clip-rule="nonzero"/></clipPath><clipPath id="c38b8ef804"><path d="M 37.757812 29.996094 L 0.183594 0.90625 L 75.335938 0.90625 Z M 37.757812 29.996094 " clip-rule="nonzero"/></clipPath><clipPath id="9dcd91d0b6"><rect x="0" width="76" y="0" height="30"/></clipPath><clipPath id="e489a1d13a"><path d="M 221.480469 165.332031 L 259.222656 165.332031 L 259.222656 222.683594 L 221.480469 222.683594 Z M 221.480469 165.332031 " clip-rule="nonzero"/></clipPath><clipPath id="864999d451"><path d="M 221.480469 194.027344 L 259.15625 165.371094 L 259.15625 222.683594 Z M 221.480469 194.027344 " clip-rule="nonzero"/></clipPath><clipPath id="dd38c9e8aa"><path d="M 0.480469 0.359375 L 38.199219 0.359375 L 38.199219 57.683594 L 0.480469 57.683594 Z M 0.480469 0.359375 " clip-rule="nonzero"/></clipPath><clipPath id="faea8c709e"><path d="M 0.480469 29.027344 L 38.15625 0.371094 L 38.15625 57.683594 Z M 0.480469 29.027344 " clip-rule="nonzero"/></clipPath><clipPath id="e8cbc4d5f1"><rect x="0" width="39" y="0" height="58"/></clipPath><clipPath id="c86d69d151"><path d="M 184 223 L 262 223 L 262 277 L 184 277 Z M 184 223 " clip-rule="nonzero"/></clipPath><clipPath id="c43925359d"><path d="M 165.964844 249.328125 L 243.292969 197.503906 L 261.59375 224.808594 L 184.265625 276.632812 Z M 165.964844 249.328125 " clip-rule="nonzero"/></clipPath><clipPath id="57ac6b13da"><path d="M 204.613281 223.425781 L 261.527344 224.78125 L 184.230469 276.582031 Z M 204.613281 223.425781 " clip-rule="nonzero"/></clipPath><clipPath id="3ce6110aae"><path d="M 0.078125 0.199219 L 77.601562 0.199219 L 77.601562 53.71875 L 0.078125 53.71875 Z M 0.078125 0.199219 " clip-rule="nonzero"/></clipPath><clipPath id="bc4d2afe0d"><path d="M -18.035156 26.328125 L 59.292969 -25.496094 L 77.59375 1.808594 L 0.265625 53.632812 Z M -18.035156 26.328125 " clip-rule="nonzero"/></clipPath><clipPath id="491d253968"><path d="M 20.613281 0.425781 L 77.527344 1.78125 L 0.230469 53.582031 Z M 20.613281 0.425781 " clip-rule="nonzero"/></clipPath><clipPath id="261ddae42a"><rect x="0" width="78" y="0" height="54"/></clipPath><clipPath id="95e356d8ea"><path d="M 181 220 L 211 220 L 211 284 L 181 284 Z M 181 220 " clip-rule="nonzero"/></clipPath><clipPath id="c6654b3230"><path d="M 181.703125 279.894531 L 193.84375 220.371094 L 210.742188 223.816406 L 198.605469 283.34375 Z M 181.703125 279.894531 " clip-rule="nonzero"/></clipPath><clipPath id="9e0a6ad789"><path d="M 0.679688 0.320312 L 29.480469 0.320312 L 29.480469 60 L 0.679688 60 Z M 0.679688 0.320312 " clip-rule="nonzero"/></clipPath><clipPath id="98ce2ced21"><path d="M 0.703125 59.894531 L 12.84375 0.371094 L 29.742188 3.816406 L 17.605469 63.34375 Z M 0.703125 59.894531 " clip-rule="nonzero"/></clipPath><clipPath id="690581e6b7"><path d="M 17.238281 63.265625 L 29.375 3.742188 L 12.472656 0.296875 L 0.335938 59.820312 Z M 17.238281 63.265625 " clip-rule="nonzero"/></clipPath><clipPath id="f6d55899f1"><rect x="0" width="30" y="0" height="64"/></clipPath><clipPath id="d847d58941"><path d="M 169.121094 206 L 198 206 L 198 237 L 169.121094 237 Z M 169.121094 206 " clip-rule="nonzero"/></clipPath><clipPath id="cdb8bc7447"><path d="M 169.121094 205.511719 L 198 205.511719 L 198 237.011719 L 169.121094 237.011719 Z M 169.121094 205.511719 " clip-rule="nonzero"/></clipPath><clipPath id="96c4407a4e"><path d="M 140 224 L 184 224 L 184 279 L 140 279 Z M 140 224 " clip-rule="nonzero"/></clipPath><clipPath id="132b3aa5c4"><path d="M 168.773438 286.792969 L 140 232.4375 L 155.246094 224.367188 L 184.015625 278.722656 Z M 168.773438 286.792969 " clip-rule="nonzero"/></clipPath><clipPath id="64ab5b2b7d"><path d="M 168.773438 286.792969 L 140 232.4375 L 155.246094 224.367188 L 184.015625 278.722656 Z M 168.773438 286.792969 " clip-rule="nonzero"/></clipPath></defs><g clip-path="url(#d983919c79)"><g clip-path="url(#ed056868bd)"><g transform="matrix(1, 0, 0, 1, 72, 54)"><g clip-path="url(#4d07282e2e)"><g clip-path="url(#58aaaeb5c2)"><g clip-path="url(#78c2b0d97a)"><path fill="#01315b" d="M 0.40625 0.03125 L 214.660156 0.03125 L 214.660156 207.007812 L 0.40625 207.007812 Z M 0.40625 0.03125 " fill-opacity="1" fill-rule="nonzero"/></g></g></g></g></g></g><g clip-path="url(#d40adb88fe)"><g clip-path="url(#b8fff1f3b6)"><g transform="matrix(1, 0, 0, 1, 211, 115)"><g clip-path="url(#5a51922f24)"><g clip-path="url(#a19053825f)"><g clip-path="url(#ae782e10d4)"><path fill="#ec7f11" d="M 0.933594 0.648438 L 106.59375 0.648438 L 106.59375 102.71875 L 0.933594 102.71875 Z M 0.933594 0.648438 " fill-opacity="1" fill-rule="nonzero"/></g></g></g></g></g></g><g clip-path="url(#a61c158178)"><g transform="matrix(1, 0, 0, 1, 142, 155)"><g clip-path="url(#d68ee3fe65)"><g clip-path="url(#274b71095c)"><path fill="#284c79" d="M 0.746094 0.925781 L 91.832031 0.925781 L 91.832031 35.9375 L 0.746094 35.9375 Z M 0.746094 0.925781 " fill-opacity="1" fill-rule="nonzero"/></g></g></g></g><g clip-path="url(#ba20204a00)"><g clip-path="url(#f7f2cd9875)"><g transform="matrix(1, 0, 0, 1, 105, 163)"><g clip-path="url(#b4ef9b9f32)"><g clip-path="url(#39ad189581)"><g clip-path="url(#135c11eba9)"><path fill="#021226" d="M 0.734375 0.214844 L 170.714844 0.214844 L 170.714844 134.519531 L 0.734375 134.519531 Z M 0.734375 0.214844 " fill-opacity="1" fill-rule="nonzero"/></g></g></g></g></g></g><g transform="matrix(1, 0, 0, 1, 134, 51)"><g clip-path="url(#cb597f401f)"><g fill="#081526" fill-opacity="1"><g transform="translate(116.097419, 34.129747)"><g><path d="M -57.53125 -3.375 C -47.269531 -3.375 -38.222656 -1.578125 -30.390625 2.015625 C -22.554688 5.617188 -16.429688 10.910156 -12.015625 17.890625 C -7.609375 24.867188 -5.40625 33.351562 -5.40625 43.34375 L -5.40625 95.203125 L -16.75 95.203125 L -16.75 43.21875 C -16.75 35.113281 -18.476562 28.378906 -21.9375 23.015625 C -25.40625 17.660156 -30.203125 13.632812 -36.328125 10.9375 C -42.453125 8.238281 -49.566406 6.890625 -57.671875 6.890625 C -65.765625 6.890625 -72.875 8.238281 -79 10.9375 C -85.125 13.632812 -89.894531 17.660156 -93.3125 23.015625 C -96.738281 28.378906 -98.453125 35.113281 -98.453125 43.21875 L -98.453125 95.203125 L -109.65625 95.203125 L -109.65625 43.34375 C -109.65625 33.351562 -107.445312 24.867188 -103.03125 17.890625 C -98.625 10.910156 -92.523438 5.617188 -84.734375 2.015625 C -76.953125 -1.578125 -67.882812 -3.375 -57.53125 -3.375 Z M -57.53125 -3.375 "/></g></g></g></g></g><g transform="matrix(1, 0, 0, 1, 126, 48)"><g clip-path="url(#fdfb848d82)"><g fill="#ffffff" fill-opacity="1"><g transform="translate(115.664182, 35.009151)"><g><path d="M -57.53125 -3.375 C -47.269531 -3.375 -38.222656 -1.578125 -30.390625 2.015625 C -22.554688 5.617188 -16.429688 10.910156 -12.015625 17.890625 C -7.609375 24.867188 -5.40625 33.351562 -5.40625 43.34375 L -5.40625 95.203125 L -16.75 95.203125 L -16.75 43.21875 C -16.75 35.113281 -18.476562 28.378906 -21.9375 23.015625 C -25.40625 17.660156 -30.203125 13.632812 -36.328125 10.9375 C -42.453125 8.238281 -49.566406 6.890625 -57.671875 6.890625 C -65.765625 6.890625 -72.875 8.238281 -79 10.9375 C -85.125 13.632812 -89.894531 17.660156 -93.3125 23.015625 C -96.738281 28.378906 -98.453125 35.113281 -98.453125 43.21875 L -98.453125 95.203125 L -109.65625 95.203125 L -109.65625 43.34375 C -109.65625 33.351562 -107.445312 24.867188 -103.03125 17.890625 C -98.625 10.910156 -92.523438 5.617188 -84.734375 2.015625 C -76.953125 -1.578125 -67.882812 -3.375 -57.53125 -3.375 Z M -57.53125 -3.375 "/></g></g></g></g></g><g clip-path="url(#8b392942d0)"><g clip-path="url(#9f36d4adce)"><g transform="matrix(1, 0, 0, 1, 99, 155)"><g clip-path="url(#95d5b4a7fc)"><g clip-path="url(#8ec1f6f58b)"><g clip-path="url(#91794a3976)"><path fill="#ffffff" d="M 0.359375 0.925781 L 168.988281 0.925781 L 168.988281 131.746094 L 0.359375 131.746094 Z M 0.359375 0.925781 " fill-opacity="1" fill-rule="nonzero"/></g></g></g></g></g></g><g clip-path="url(#e4bf5200ac)"><g clip-path="url(#e6fce09ce8)"><path stroke-linecap="butt" transform="matrix(0.75, 0, 0, 0.75, 99.35832, 155.927671)" fill="none" stroke-linejoin="miter" d="M 9.001407 -0.00251908 L 215.548295 -0.00251908 C 220.517046 -0.00251908 224.548296 4.028731 224.548296 8.997482 L 224.548296 165.419367 C 224.548296 170.393325 220.517046 174.419367 215.548295 174.419367 L 9.001407 174.419367 C 4.027448 174.419367 0.00140617 170.393325 0.00140617 165.419367 L 0.00140617 8.997482 C 0.00140617 4.028731 4.027448 -0.00251908 9.001407 -0.00251908 Z M 9.001407 -0.00251908 " stroke="#9bdaff" stroke-width="20" stroke-opacity="1" stroke-miterlimit="4"/></g></g><g clip-path="url(#88764a80c6)"><g clip-path="url(#485204ff3f)"><g transform="matrix(1, 0, 0, 1, 105, 158)"><g clip-path="url(#caae170759)"><g clip-path="url(#29d5940b64)"><g clip-path="url(#4734904452)"><path fill="#18485e" d="M 0.296875 0.78125 L 157.089844 0.78125 L 157.089844 123.152344 L 0.296875 123.152344 Z M 0.296875 0.78125 " fill-opacity="1" fill-rule="nonzero"/></g></g></g></g></g></g><g mask="url(#0a2ded159f)"><g transform="matrix(1, 0, 0, 1, 108, 163)"><g clip-path="url(#64f27daa0e)"><g clip-path="url(#33d6fb9e45)"><g><g clip-path="url(#4ae7faae13)"><g clip-path="url(#8eebd5eda2)"><path fill="#142e51" d="M 0.0820312 0.214844 L 159.800781 0.214844 L 159.800781 123.746094 L 0.0820312 123.746094 Z M 0.0820312 0.214844 " fill-opacity="1" fill-rule="nonzero"/></g></g></g></g></g></g></g><g clip-path="url(#d3101fc3d7)"><g clip-path="url(#cf4798594d)"><g transform="matrix(1, 0, 0, 1, 108, 163)"><g clip-path="url(#b1c8337304)"><g clip-path="url(#227b196654)"><g clip-path="url(#eb73ae2a25)"><path fill="#afd9ff" d="M 0.0820312 0.214844 L 154.414062 0.214844 L 154.414062 118.152344 L 0.0820312 118.152344 Z M 0.0820312 0.214844 " fill-opacity="1" fill-rule="nonzero"/></g></g></g></g></g></g><g clip-path="url(#a457e34138)"><g clip-path="url(#ae1e1f4d2b)"><g transform="matrix(1, 0, 0, 1, 108, 163)"><g clip-path="url(#55bd9cf697)"><g clip-path="url(#ac943e6185)"><g clip-path="url(#0538eb5df9)"><path fill="#021226" d="M 0.0820312 0.214844 L 152.085938 0.214844 L 152.085938 115.683594 L 0.0820312 115.683594 Z M 0.0820312 0.214844 " fill-opacity="1" fill-rule="nonzero"/></g></g></g></g></g></g><g clip-path="url(#bacc581023)"><g clip-path="url(#c4c8c0ae4e)"><g transform="matrix(1, 0, 0, 1, 108, 164)"><g clip-path="url(#946dd9e1ae)"><g clip-path="url(#22cec994f6)"><g clip-path="url(#fe6fabfb84)"><path fill="#284c79" d="M 77.464844 0.90625 L 77.464844 62.765625 L 0.382812 62.765625 L 0.382812 0.90625 Z M 77.464844 0.90625 " fill-opacity="1" fill-rule="nonzero"/></g></g></g></g></g></g><g clip-path="url(#cac915fc89)"><g clip-path="url(#0141334e6c)"><g transform="matrix(1, 0, 0, 1, 185, 163)"><g clip-path="url(#d3aa73b658)"><g clip-path="url(#24e226396c)"><g clip-path="url(#26529c2c94)"><path fill="#284c79" d="M 75.015625 0.117188 L 75.015625 61.976562 L 0.347656 61.976562 L 0.347656 0.117188 Z M 75.015625 0.117188 " fill-opacity="1" fill-rule="nonzero"/></g></g></g></g></g></g><g clip-path="url(#d5fd229241)"><g clip-path="url(#e7d148b3f3)"><g transform="matrix(1, 0, 0, 1, 108, 222)"><g clip-path="url(#54fdaee305)"><g clip-path="url(#b4355eafc4)"><g clip-path="url(#c6403a81d8)"><path fill="#284c79" d="M 153.5625 54.625 L 0.328125 54.625 L 0.328125 0.21875 L 153.5625 0.21875 Z M 153.5625 54.625 " fill-opacity="1" fill-rule="nonzero"/></g></g></g></g></g></g><g clip-path="url(#c96c81fc35)"><g clip-path="url(#2380a7e322)"><g transform="matrix(1, 0, 0, 1, 108, 221)"><g clip-path="url(#bd75e1bb02)"><g clip-path="url(#035f73963d)"><g clip-path="url(#3e15c22afb)"><path fill="#35b495" d="M 90.460938 33.910156 L 0.355469 33.910156 L 0.355469 0.332031 L 90.460938 0.332031 Z M 90.460938 33.910156 " fill-opacity="1" fill-rule="nonzero"/></g></g></g></g></g></g><g clip-path="url(#08bff9c0b1)"><g clip-path="url(#a736309512)"><g transform="matrix(1, 0, 0, 1, 108, 191)"><g clip-path="url(#a9a1bf77bb)"><g clip-path="url(#2d4ba58259)"><g clip-path="url(#fff75f4e1a)"><path fill="#3275b0" d="M 0.0507812 0.804688 L 78.792969 0.804688 L 78.792969 32.699219 L 0.0507812 32.699219 Z M 0.0507812 0.804688 " fill-opacity="1" fill-rule="nonzero"/></g></g></g></g></g></g><g clip-path="url(#e9030d7fb2)"><g clip-path="url(#f6efc18726)"><g clip-path="url(#77c347efbe)"><g transform="matrix(1, 0, 0, 1, 108, 223)"><g clip-path="url(#27b12ef1ea)"><g clip-path="url(#5f481d1eb7)"><g clip-path="url(#81a53ad8f2)"><g clip-path="url(#ee0a29dba7)"><path fill="#5fa3bc" d="M 19.640625 -26.136719 L 94.046875 27.855469 L 74.742188 54.457031 L 0.335938 0.464844 Z M 19.640625 -26.136719 " fill-opacity="1" fill-rule="nonzero"/></g></g></g></g></g></g></g></g><g clip-path="url(#4f929a60bb)"><g clip-path="url(#246440b5e3)"><g transform="matrix(1, 0, 0, 1, 145, 191)"><g clip-path="url(#37fcc99f3c)"><g clip-path="url(#3869be316b)"><g clip-path="url(#88badda871)"><path fill="#367992" d="M 0.480469 87.777344 L 0.480469 0.75 L 38.566406 0.75 L 38.566406 87.777344 Z M 0.480469 87.777344 " fill-opacity="1" fill-rule="nonzero"/></g></g></g></g></g></g><g clip-path="url(#838cf91d15)"><g clip-path="url(#3a072a0e0e)"><g transform="matrix(1, 0, 0, 1, 108, 164)"><g clip-path="url(#60ef85a7b7)"><g clip-path="url(#af827b9fb0)"><g clip-path="url(#9523e89702)"><path fill="#bbdfff" d="M 38.570312 0.90625 L 38.570312 58.253906 L 0.828125 58.253906 L 0.828125 0.90625 Z M 38.570312 0.90625 " fill-opacity="1" fill-rule="nonzero"/></g></g></g></g></g></g><g clip-path="url(#19754eae29)"><g clip-path="url(#7b12255b10)"><g transform="matrix(1, 0, 0, 1, 108, 164)"><g clip-path="url(#44ae9f3dbb)"><g clip-path="url(#778404b22f)"><g clip-path="url(#8c6a93d160)"><path fill="#56b0ff" d="M 75.996094 30.039062 L 0.859375 30.039062 L 0.859375 0.894531 L 75.996094 0.894531 Z M 75.996094 30.039062 " fill-opacity="1" fill-rule="nonzero"/></g></g></g></g></g></g><g clip-path="url(#f44e2b2dc7)"><g clip-path="url(#e093f0b9e2)"><g transform="matrix(1, 0, 0, 1, 146, 164)"><g clip-path="url(#e834bda619)"><g clip-path="url(#809dcce7f8)"><g clip-path="url(#7e29b2288d)"><path fill="#4196e2" d="M 0.261719 58.179688 L 0.261719 0.828125 L 38.003906 0.828125 L 38.003906 58.179688 Z M 0.261719 58.179688 " fill-opacity="1" fill-rule="nonzero"/></g></g></g></g></g></g><g clip-path="url(#814d684c22)"><g clip-path="url(#18d0fdd861)"><g transform="matrix(1, 0, 0, 1, 183, 194)"><g clip-path="url(#9fe17f8c24)"><g clip-path="url(#df043e2ada)"><g clip-path="url(#e95390bbb8)"><path fill="#9bdaff" d="M 39.742188 0.167969 L 39.742188 84.75 L 0.0117188 84.75 L 0.0117188 0.167969 Z M 39.742188 0.167969 " fill-opacity="1" fill-rule="nonzero"/></g></g></g></g></g></g><g clip-path="url(#2c026ee4da)"><g clip-path="url(#17958ae1a9)"><g transform="matrix(1, 0, 0, 1, 183, 164)"><g clip-path="url(#40d97ab744)"><g clip-path="url(#2a78cdd0bf)"><g clip-path="url(#b273079b0a)"><path fill="#3c82c0" d="M 37.75 0.863281 L 37.75 58.210938 L 0.0117188 58.210938 L 0.0117188 0.863281 Z M 37.75 0.863281 " fill-opacity="1" fill-rule="nonzero"/></g></g></g></g></g></g><g clip-path="url(#8b63da8b22)"><g clip-path="url(#11a13f248d)"><g transform="matrix(1, 0, 0, 1, 183, 164)"><g clip-path="url(#9dcd91d0b6)"><g clip-path="url(#6337897f90)"><g clip-path="url(#c38b8ef804)"><path fill="#6daad0" d="M 75.335938 29.996094 L 0.203125 29.996094 L 0.203125 0.851562 L 75.335938 0.851562 Z M 75.335938 29.996094 " fill-opacity="1" fill-rule="nonzero"/></g></g></g></g></g></g><g clip-path="url(#e489a1d13a)"><g clip-path="url(#864999d451)"><g transform="matrix(1, 0, 0, 1, 221, 165)"><g clip-path="url(#e8cbc4d5f1)"><g clip-path="url(#dd38c9e8aa)"><g clip-path="url(#faea8c709e)"><path fill="#142e51" d="M 0.480469 57.683594 L 0.480469 0.332031 L 38.222656 0.332031 L 38.222656 57.683594 Z M 0.480469 57.683594 " fill-opacity="1" fill-rule="nonzero"/></g></g></g></g></g></g><g clip-path="url(#c86d69d151)"><g clip-path="url(#c43925359d)"><g clip-path="url(#57ac6b13da)"><g transform="matrix(1, 0, 0, 1, 184, 223)"><g clip-path="url(#261ddae42a)"><g clip-path="url(#3ce6110aae)"><g clip-path="url(#bc4d2afe0d)"><g clip-path="url(#491d253968)"><path fill="#021b3d" d="M -18.035156 26.328125 L 59.292969 -25.496094 L 77.59375 1.808594 L 0.265625 53.632812 Z M -18.035156 26.328125 " fill-opacity="1" fill-rule="nonzero"/></g></g></g></g></g></g></g></g><g clip-path="url(#95e356d8ea)"><g clip-path="url(#c6654b3230)"><g transform="matrix(1, 0, 0, 1, 181, 220)"><g clip-path="url(#f6d55899f1)"><g clip-path="url(#9e0a6ad789)"><g clip-path="url(#98ce2ced21)"><g clip-path="url(#690581e6b7)"><path fill="#8ddcee" d="M 29.429688 3.414062 L 12.925781 0.046875 L 0.722656 59.898438 Z M 29.429688 3.414062 " fill-opacity="1" fill-rule="nonzero"/></g></g></g></g></g></g></g><g clip-path="url(#d847d58941)"><path fill="#021226" d="M 192.351562 206.398438 C 192.351562 206.265625 192.355469 206.132812 192.367188 206.003906 C 192.363281 206 192.355469 206 192.351562 206 L 183.566406 206.023438 L 174.777344 206 C 174.773438 206 174.777344 206.265625 174.777344 206.398438 C 174.777344 209.347656 172.527344 211.769531 169.652344 212.042969 C 170.761719 224.023438 175.53125 232.007812 183.496094 236.648438 C 183.519531 236.625 183.542969 236.597656 183.5625 236.574219 C 183.585938 236.597656 183.609375 236.625 183.632812 236.648438 C 191.597656 232.007812 196.367188 224.023438 197.476562 212.042969 C 194.601562 211.769531 192.351562 209.347656 192.351562 206.398438 Z M 192.351562 206.398438 " fill-opacity="1" fill-rule="nonzero"/></g><g clip-path="url(#cdb8bc7447)"><path fill="#081526" d="M 183.496094 237.136719 C 183.410156 237.136719 183.328125 237.117188 183.25 237.070312 C 179.160156 234.6875 175.90625 231.414062 173.578125 227.339844 C 171.199219 223.179688 169.714844 218.046875 169.164062 212.089844 C 169.140625 211.820312 169.335938 211.582031 169.605469 211.554688 C 170.882812 211.433594 172.0625 210.84375 172.929688 209.894531 C 173.804688 208.9375 174.285156 207.695312 174.285156 206.398438 C 174.285156 206.355469 174.285156 206.296875 174.285156 206.242188 C 174.285156 206.179688 174.285156 206.121094 174.285156 206.074219 C 174.285156 205.628906 174.574219 205.535156 174.703125 205.515625 C 174.726562 205.511719 174.75 205.511719 174.777344 205.511719 L 183.566406 205.53125 L 192.351562 205.511719 C 192.375 205.511719 192.402344 205.511719 192.425781 205.515625 L 192.441406 205.515625 C 192.691406 205.554688 192.871094 205.78125 192.855469 206.035156 C 192.847656 206.160156 192.84375 206.28125 192.84375 206.398438 C 192.84375 207.695312 193.324219 208.9375 194.199219 209.894531 C 195.066406 210.84375 196.246094 211.433594 197.523438 211.554688 C 197.789062 211.582031 197.988281 211.820312 197.964844 212.089844 C 197.414062 218.046875 195.929688 223.179688 193.550781 227.339844 C 191.222656 231.414062 187.96875 234.6875 183.878906 237.070312 C 183.78125 237.128906 183.671875 237.148438 183.5625 237.132812 C 183.542969 237.136719 183.519531 237.136719 183.496094 237.136719 Z M 183.566406 236.085938 C 183.582031 236.085938 183.601562 236.085938 183.617188 236.085938 C 187.449219 233.804688 190.503906 230.699219 192.699219 226.855469 C 194.945312 222.921875 196.371094 218.085938 196.941406 212.464844 C 195.613281 212.230469 194.394531 211.5625 193.472656 210.554688 C 192.457031 209.441406 191.886719 208 191.863281 206.492188 L 183.566406 206.511719 L 175.265625 206.492188 C 175.246094 208 174.675781 209.4375 173.65625 210.554688 C 172.734375 211.5625 171.515625 212.230469 170.1875 212.464844 C 170.757812 218.085938 172.183594 222.921875 174.429688 226.855469 C 176.625 230.699219 179.679688 233.804688 183.511719 236.085938 C 183.527344 236.085938 183.546875 236.085938 183.566406 236.085938 C 183.5625 236.085938 183.566406 236.085938 183.566406 236.085938 Z M 183.566406 236.085938 " fill-opacity="1" fill-rule="nonzero"/></g><g clip-path="url(#96c4407a4e)"><g clip-path="url(#132b3aa5c4)"><g clip-path="url(#64ab5b2b7d)"><path fill="#5fa3bc" d="M 139.878906 232.191406 L 154.9375 224.21875 L 183.835938 278.816406 Z M 139.878906 232.191406 " fill-opacity="1" fill-rule="nonzero"/></g></g></g></svg>