<svg xmlns="http://www.w3.org/2000/svg" xmlns:xlink="http://www.w3.org/1999/xlink" width="500" zoomAndPan="magnify" viewBox="0 0 375 374.999991" height="500" preserveAspectRatio="xMidYMid meet" version="1.0"><defs><filter x="0%" y="0%" width="100%" height="100%" id="ee8704a8bf"><feColorMatrix values="0 0 0 0 1 0 0 0 0 1 0 0 0 0 1 0 0 0 1 0" color-interpolation-filters="sRGB"/></filter><g/><clipPath id="d4e34cfbae"><path d="M 37.5 43.246094 L 301.878906 43.246094 L 301.878906 298.644531 L 37.5 298.644531 Z M 37.5 43.246094 " clip-rule="nonzero"/></clipPath><clipPath id="0a94829434"><path d="M 169.679688 43.246094 C 96.679688 43.246094 37.5 100.417969 37.5 170.945312 C 37.5 241.46875 96.679688 298.644531 169.679688 298.644531 C 242.683594 298.644531 301.863281 241.46875 301.863281 170.945312 C 301.863281 100.417969 242.683594 43.246094 169.679688 43.246094 Z M 169.679688 43.246094 " clip-rule="nonzero"/></clipPath><clipPath id="3889faa373"><path d="M 0.5 0.246094 L 264.878906 0.246094 L 264.878906 255.644531 L 0.5 255.644531 Z M 0.5 0.246094 " clip-rule="nonzero"/></clipPath><clipPath id="e1370d125c"><path d="M 132.679688 0.246094 C 59.679688 0.246094 0.5 57.417969 0.5 127.945312 C 0.5 198.46875 59.679688 255.644531 132.679688 255.644531 C 205.683594 255.644531 264.863281 198.46875 264.863281 127.945312 C 264.863281 57.417969 205.683594 0.246094 132.679688 0.246094 Z M 132.679688 0.246094 " clip-rule="nonzero"/></clipPath><clipPath id="776c562732"><rect x="0" width="265" y="0" height="256"/></clipPath><clipPath id="dd5f66f8c9"><path d="M 209.667969 119.273438 L 340.046875 119.273438 L 340.046875 245.226562 L 209.667969 245.226562 Z M 209.667969 119.273438 " clip-rule="nonzero"/></clipPath><clipPath id="de03ae8774"><path d="M 274.855469 119.273438 C 238.851562 119.273438 209.667969 147.46875 209.667969 182.25 C 209.667969 217.03125 238.851562 245.226562 274.855469 245.226562 C 310.855469 245.226562 340.039062 217.03125 340.039062 182.25 C 340.039062 147.46875 310.855469 119.273438 274.855469 119.273438 Z M 274.855469 119.273438 " clip-rule="nonzero"/></clipPath><clipPath id="8a7949033c"><path d="M 0.667969 0.273438 L 131.046875 0.273438 L 131.046875 126.226562 L 0.667969 126.226562 Z M 0.667969 0.273438 " clip-rule="nonzero"/></clipPath><clipPath id="aae191c6d7"><path d="M 65.855469 0.273438 C 29.851562 0.273438 0.667969 28.46875 0.667969 63.25 C 0.667969 98.03125 29.851562 126.226562 65.855469 126.226562 C 101.855469 126.226562 131.039062 98.03125 131.039062 63.25 C 131.039062 28.46875 101.855469 0.273438 65.855469 0.273438 Z M 65.855469 0.273438 " clip-rule="nonzero"/></clipPath><clipPath id="c61aa5734f"><rect x="0" width="132" y="0" height="127"/></clipPath><clipPath id="ededfb811f"><path d="M 124.292969 168.976562 L 236.625 168.976562 L 236.625 212.179688 L 124.292969 212.179688 Z M 124.292969 168.976562 " clip-rule="nonzero"/></clipPath><clipPath id="968a5f591f"><path d="M 0.292969 0.976562 L 112.625 0.976562 L 112.625 44.179688 L 0.292969 44.179688 Z M 0.292969 0.976562 " clip-rule="nonzero"/></clipPath><clipPath id="058a725c88"><rect x="0" width="113" y="0" height="45"/></clipPath><clipPath id="9ea8904cbb"><path d="M 78.625 177.96875 L 288.371094 177.96875 L 288.371094 343.695312 L 78.625 343.695312 Z M 78.625 177.96875 " clip-rule="nonzero"/></clipPath><clipPath id="5fe432160d"><path d="M 85.375 177.96875 L 281.53125 177.96875 C 283.320312 177.96875 285.039062 178.679688 286.304688 179.949219 C 287.570312 181.214844 288.28125 182.929688 288.28125 184.71875 L 288.28125 336.945312 C 288.28125 338.734375 287.570312 340.453125 286.304688 341.71875 C 285.039062 342.984375 283.320312 343.695312 281.53125 343.695312 L 85.375 343.695312 C 83.585938 343.695312 81.867188 342.984375 80.601562 341.71875 C 79.335938 340.453125 78.625 338.734375 78.625 336.945312 L 78.625 184.71875 C 78.625 182.929688 79.335938 181.214844 80.601562 179.949219 C 81.867188 178.679688 83.585938 177.96875 85.375 177.96875 Z M 85.375 177.96875 " clip-rule="nonzero"/></clipPath><clipPath id="dcfce5df54"><path d="M 0.625 0.96875 L 210.371094 0.96875 L 210.371094 166.695312 L 0.625 166.695312 Z M 0.625 0.96875 " clip-rule="nonzero"/></clipPath><clipPath id="6ab89e0b31"><path d="M 7.375 0.96875 L 203.53125 0.96875 C 205.320312 0.96875 207.039062 1.679688 208.304688 2.949219 C 209.570312 4.214844 210.28125 5.929688 210.28125 7.71875 L 210.28125 159.945312 C 210.28125 161.734375 209.570312 163.453125 208.304688 164.71875 C 207.039062 165.984375 205.320312 166.695312 203.53125 166.695312 L 7.375 166.695312 C 5.585938 166.695312 3.867188 165.984375 2.601562 164.71875 C 1.335938 163.453125 0.625 161.734375 0.625 159.945312 L 0.625 7.71875 C 0.625 5.929688 1.335938 4.214844 2.601562 2.949219 C 3.867188 1.679688 5.585938 0.96875 7.375 0.96875 Z M 7.375 0.96875 " clip-rule="nonzero"/></clipPath><clipPath id="27ccb9cc28"><rect x="0" width="211" y="0" height="167"/></clipPath><clipPath id="d06bdd32da"><rect x="0" width="143" y="0" height="168"/></clipPath><clipPath id="98f0f9b10a"><rect x="0" width="144" y="0" height="169"/></clipPath><clipPath id="9abc0ae4aa"><path d="M 70.757812 168.976562 L 278.839844 168.976562 L 278.839844 330.398438 L 70.757812 330.398438 Z M 70.757812 168.976562 " clip-rule="nonzero"/></clipPath><clipPath id="db4ab8265b"><path d="M 77.507812 168.976562 L 271.820312 168.976562 C 273.609375 168.976562 275.324219 169.6875 276.589844 170.953125 C 277.855469 172.21875 278.570312 173.9375 278.570312 175.726562 L 278.570312 323.648438 C 278.570312 325.4375 277.855469 327.15625 276.589844 328.421875 C 275.324219 329.6875 273.609375 330.398438 271.820312 330.398438 L 77.507812 330.398438 C 75.71875 330.398438 74 329.6875 72.734375 328.421875 C 71.46875 327.15625 70.757812 325.4375 70.757812 323.648438 L 70.757812 175.726562 C 70.757812 173.9375 71.46875 172.21875 72.734375 170.953125 C 74 169.6875 75.71875 168.976562 77.507812 168.976562 Z M 77.507812 168.976562 " clip-rule="nonzero"/></clipPath><clipPath id="7acad9df25"><path d="M 0.757812 0.976562 L 208.640625 0.976562 L 208.640625 162.398438 L 0.757812 162.398438 Z M 0.757812 0.976562 " clip-rule="nonzero"/></clipPath><clipPath id="4397bbbcb2"><path d="M 7.507812 0.976562 L 201.820312 0.976562 C 203.609375 0.976562 205.324219 1.6875 206.589844 2.953125 C 207.855469 4.21875 208.570312 5.9375 208.570312 7.726562 L 208.570312 155.648438 C 208.570312 157.4375 207.855469 159.15625 206.589844 160.421875 C 205.324219 161.6875 203.609375 162.398438 201.820312 162.398438 L 7.507812 162.398438 C 5.71875 162.398438 4 161.6875 2.734375 160.421875 C 1.46875 159.15625 0.757812 157.4375 0.757812 155.648438 L 0.757812 7.726562 C 0.757812 5.9375 1.46875 4.21875 2.734375 2.953125 C 4 1.6875 5.71875 0.976562 7.507812 0.976562 Z M 7.507812 0.976562 " clip-rule="nonzero"/></clipPath><clipPath id="2e450d8ba4"><rect x="0" width="209" y="0" height="163"/></clipPath><clipPath id="a68ef436fa"><path d="M 70.761719 168.976562 L 278.507812 168.976562 L 278.507812 330.226562 L 70.761719 330.226562 Z M 70.761719 168.976562 " clip-rule="nonzero"/></clipPath><clipPath id="adf8392d79"><path d="M 77.511719 168.976562 L 271.8125 168.976562 C 273.601562 168.976562 275.320312 169.6875 276.585938 170.953125 C 277.851562 172.21875 278.5625 173.9375 278.5625 175.726562 L 278.5625 323.640625 C 278.5625 325.433594 277.851562 327.148438 276.585938 328.414062 C 275.320312 329.679688 273.601562 330.390625 271.8125 330.390625 L 77.511719 330.390625 C 75.71875 330.390625 74.003906 329.679688 72.738281 328.414062 C 71.472656 327.148438 70.761719 325.433594 70.761719 323.640625 L 70.761719 175.726562 C 70.761719 173.9375 71.472656 172.21875 72.738281 170.953125 C 74.003906 169.6875 75.71875 168.976562 77.511719 168.976562 Z M 77.511719 168.976562 " clip-rule="nonzero"/></clipPath><clipPath id="3f224c7b8c"><path d="M 78.085938 172.496094 L 271.304688 172.496094 L 271.304688 326.113281 L 78.085938 326.113281 Z M 78.085938 172.496094 " clip-rule="nonzero"/></clipPath><clipPath id="a8c190dc6a"><path d="M 82.585938 172.496094 L 266.738281 172.496094 C 267.933594 172.496094 269.078125 172.972656 269.921875 173.816406 C 270.765625 174.660156 271.238281 175.804688 271.238281 176.996094 L 271.238281 321.613281 C 271.238281 322.804688 270.765625 323.949219 269.921875 324.792969 C 269.078125 325.636719 267.933594 326.113281 266.738281 326.113281 L 82.585938 326.113281 C 81.394531 326.113281 80.25 325.636719 79.40625 324.792969 C 78.5625 323.949219 78.085938 322.804688 78.085938 321.613281 L 78.085938 176.996094 C 78.085938 175.804688 78.5625 174.660156 79.40625 173.816406 C 80.25 172.972656 81.394531 172.496094 82.585938 172.496094 Z M 82.585938 172.496094 " clip-rule="nonzero"/></clipPath><clipPath id="8fe926b9d6"><path d="M 0.0859375 0.496094 L 193.304688 0.496094 L 193.304688 154.113281 L 0.0859375 154.113281 Z M 0.0859375 0.496094 " clip-rule="nonzero"/></clipPath><clipPath id="7ae2c490de"><path d="M 4.585938 0.496094 L 188.738281 0.496094 C 189.933594 0.496094 191.078125 0.972656 191.921875 1.816406 C 192.765625 2.660156 193.238281 3.804688 193.238281 4.996094 L 193.238281 149.613281 C 193.238281 150.804688 192.765625 151.949219 191.921875 152.792969 C 191.078125 153.636719 189.933594 154.113281 188.738281 154.113281 L 4.585938 154.113281 C 3.394531 154.113281 2.25 153.636719 1.40625 152.792969 C 0.5625 151.949219 0.0859375 150.804688 0.0859375 149.613281 L 0.0859375 4.996094 C 0.0859375 3.804688 0.5625 2.660156 1.40625 1.816406 C 2.25 0.972656 3.394531 0.496094 4.585938 0.496094 Z M 4.585938 0.496094 " clip-rule="nonzero"/></clipPath><clipPath id="65f14ab779"><rect x="0" width="194" y="0" height="155"/></clipPath><mask id="cb478885f5"><g filter="url(#ee8704a8bf)"><rect x="-37.5" width="450" fill="#000000" y="-37.499999" height="449.999989" fill-opacity="0.78"/></g></mask><clipPath id="e55527cce9"><path d="M 0.0859375 0.96875 L 200.570312 0.96875 L 200.570312 153.398438 L 0.0859375 153.398438 Z M 0.0859375 0.96875 " clip-rule="nonzero"/></clipPath><clipPath id="38857e69b1"><path d="M 0.0859375 0.96875 L 200.570312 0.96875 L 200.570312 153.398438 L 0.0859375 153.398438 Z M 0.0859375 0.96875 " clip-rule="nonzero"/></clipPath><clipPath id="a1bf40c54a"><rect x="0" width="201" y="0" height="154"/></clipPath><clipPath id="b332f10fbe"><rect x="0" width="201" y="0" height="154"/></clipPath><clipPath id="816b564efd"><path d="M 81.523438 177.96875 L 273.644531 177.96875 L 273.644531 326.113281 L 81.523438 326.113281 Z M 81.523438 177.96875 " clip-rule="nonzero"/></clipPath><clipPath id="9a053df8c5"><path d="M 85.273438 177.96875 L 269.574219 177.96875 C 271.644531 177.96875 273.324219 179.648438 273.324219 181.71875 L 273.324219 322.363281 C 273.324219 324.433594 271.644531 326.113281 269.574219 326.113281 L 85.273438 326.113281 C 83.199219 326.113281 81.523438 324.433594 81.523438 322.363281 L 81.523438 181.71875 C 81.523438 179.648438 83.199219 177.96875 85.273438 177.96875 Z M 85.273438 177.96875 " clip-rule="nonzero"/></clipPath><clipPath id="a490359333"><path d="M 0.523438 0.96875 L 192.359375 0.96875 L 192.359375 149.113281 L 0.523438 149.113281 Z M 0.523438 0.96875 " clip-rule="nonzero"/></clipPath><clipPath id="9db340a0e3"><path d="M 4.273438 0.96875 L 188.574219 0.96875 C 190.644531 0.96875 192.324219 2.648438 192.324219 4.71875 L 192.324219 145.363281 C 192.324219 147.433594 190.644531 149.113281 188.574219 149.113281 L 4.273438 149.113281 C 2.199219 149.113281 0.523438 147.433594 0.523438 145.363281 L 0.523438 4.71875 C 0.523438 2.648438 2.199219 0.96875 4.273438 0.96875 Z M 4.273438 0.96875 " clip-rule="nonzero"/></clipPath><clipPath id="33cdd220ea"><rect x="0" width="193" y="0" height="150"/></clipPath><clipPath id="5d2f93b2df"><path d="M 81.523438 177.96875 L 269.089844 177.96875 L 269.089844 320.453125 L 81.523438 320.453125 Z M 81.523438 177.96875 " clip-rule="nonzero"/></clipPath><clipPath id="190696b68a"><path d="M 86.023438 177.96875 L 264.511719 177.96875 C 265.703125 177.96875 266.847656 178.445312 267.691406 179.289062 C 268.535156 180.132812 269.011719 181.277344 269.011719 182.46875 L 269.011719 315.953125 C 269.011719 317.148438 268.535156 318.292969 267.691406 319.136719 C 266.847656 319.980469 265.703125 320.453125 264.511719 320.453125 L 86.023438 320.453125 C 84.828125 320.453125 83.683594 319.980469 82.839844 319.136719 C 81.996094 318.292969 81.523438 317.148438 81.523438 315.953125 L 81.523438 182.46875 C 81.523438 181.277344 81.996094 180.132812 82.839844 179.289062 C 83.683594 178.445312 84.828125 177.96875 86.023438 177.96875 Z M 86.023438 177.96875 " clip-rule="nonzero"/></clipPath><clipPath id="5c33a735b8"><path d="M 0.523438 0.96875 L 188.039062 0.96875 L 188.039062 143.453125 L 0.523438 143.453125 Z M 0.523438 0.96875 " clip-rule="nonzero"/></clipPath><clipPath id="707bf623bf"><path d="M 5.023438 0.96875 L 183.511719 0.96875 C 184.703125 0.96875 185.847656 1.445312 186.691406 2.289062 C 187.535156 3.132812 188.011719 4.277344 188.011719 5.46875 L 188.011719 138.953125 C 188.011719 140.148438 187.535156 141.292969 186.691406 142.136719 C 185.847656 142.980469 184.703125 143.453125 183.511719 143.453125 L 5.023438 143.453125 C 3.828125 143.453125 2.683594 142.980469 1.839844 142.136719 C 0.996094 141.292969 0.523438 140.148438 0.523438 138.953125 L 0.523438 5.46875 C 0.523438 4.277344 0.996094 3.132812 1.839844 2.289062 C 2.683594 1.445312 3.828125 0.96875 5.023438 0.96875 Z M 5.023438 0.96875 " clip-rule="nonzero"/></clipPath><clipPath id="bdbea4dd8d"><rect x="0" width="189" y="0" height="144"/></clipPath><clipPath id="0d35d8146d"><path d="M 82 180.058594 L 177.007812 180.058594 L 177.007812 256.390625 L 82 256.390625 Z M 82 180.058594 " clip-rule="nonzero"/></clipPath><clipPath id="5afbe7210c"><path d="M 177.007812 184.558594 L 177.007812 251.890625 C 177.007812 253.082031 176.535156 254.226562 175.691406 255.070312 C 174.847656 255.914062 173.703125 256.390625 172.507812 256.390625 L 86.515625 256.390625 C 85.320312 256.390625 84.175781 255.914062 83.332031 255.070312 C 82.488281 254.226562 82.015625 253.082031 82.015625 251.890625 L 82.015625 184.558594 C 82.015625 183.367188 82.488281 182.222656 83.332031 181.375 C 84.175781 180.53125 85.320312 180.058594 86.515625 180.058594 L 172.507812 180.058594 C 173.703125 180.058594 174.847656 180.53125 175.691406 181.375 C 176.535156 182.222656 177.007812 183.367188 177.007812 184.558594 Z M 177.007812 184.558594 " clip-rule="nonzero"/></clipPath><clipPath id="6aa90650bf"><path d="M 0 0.0585938 L 95.007812 0.0585938 L 95.007812 76.390625 L 0 76.390625 Z M 0 0.0585938 " clip-rule="nonzero"/></clipPath><clipPath id="bb714a92e7"><path d="M 95.007812 4.558594 L 95.007812 71.890625 C 95.007812 73.082031 94.535156 74.226562 93.691406 75.070312 C 92.847656 75.914062 91.703125 76.390625 90.507812 76.390625 L 4.515625 76.390625 C 3.320312 76.390625 2.175781 75.914062 1.332031 75.070312 C 0.488281 74.226562 0.015625 73.082031 0.015625 71.890625 L 0.015625 4.558594 C 0.015625 3.367188 0.488281 2.222656 1.332031 1.375 C 2.175781 0.53125 3.320312 0.0585938 4.515625 0.0585938 L 90.507812 0.0585938 C 91.703125 0.0585938 92.847656 0.53125 93.691406 1.375 C 94.535156 2.222656 95.007812 3.367188 95.007812 4.558594 Z M 95.007812 4.558594 " clip-rule="nonzero"/></clipPath><clipPath id="280bcf66bc"><rect x="0" width="96" y="0" height="77"/></clipPath><clipPath id="34dc5ab903"><path d="M 177 177.855469 L 269.003906 177.855469 L 269.003906 254.183594 L 177 254.183594 Z M 177 177.855469 " clip-rule="nonzero"/></clipPath><clipPath id="919577312b"><path d="M 269.003906 182.355469 L 269.003906 249.683594 C 269.003906 250.878906 268.53125 252.023438 267.6875 252.867188 C 266.84375 253.710938 265.699219 254.183594 264.503906 254.183594 L 181.507812 254.183594 C 180.316406 254.183594 179.171875 253.710938 178.328125 252.867188 C 177.484375 252.023438 177.007812 250.878906 177.007812 249.683594 L 177.007812 182.355469 C 177.007812 181.160156 177.484375 180.015625 178.328125 179.171875 C 179.171875 178.328125 180.316406 177.855469 181.507812 177.855469 L 264.503906 177.855469 C 265.699219 177.855469 266.84375 178.328125 267.6875 179.171875 C 268.53125 180.015625 269.003906 181.160156 269.003906 182.355469 Z M 269.003906 182.355469 " clip-rule="nonzero"/></clipPath><clipPath id="0e71b5e4a8"><path d="M 0 0.855469 L 92.003906 0.855469 L 92.003906 77.183594 L 0 77.183594 Z M 0 0.855469 " clip-rule="nonzero"/></clipPath><clipPath id="56ea060f47"><path d="M 92.003906 5.355469 L 92.003906 72.683594 C 92.003906 73.878906 91.53125 75.023438 90.6875 75.867188 C 89.84375 76.710938 88.699219 77.183594 87.503906 77.183594 L 4.507812 77.183594 C 3.316406 77.183594 2.171875 76.710938 1.328125 75.867188 C 0.484375 75.023438 0.0078125 73.878906 0.0078125 72.683594 L 0.0078125 5.355469 C 0.0078125 4.160156 0.484375 3.015625 1.328125 2.171875 C 2.171875 1.328125 3.316406 0.855469 4.507812 0.855469 L 87.503906 0.855469 C 88.699219 0.855469 89.84375 1.328125 90.6875 2.171875 C 91.53125 3.015625 92.003906 4.160156 92.003906 5.355469 Z M 92.003906 5.355469 " clip-rule="nonzero"/></clipPath><clipPath id="7cbe2241db"><rect x="0" width="93" y="0" height="78"/></clipPath><clipPath id="abea9eb729"><path d="M 81.8125 250.789062 L 270.898438 250.789062 L 270.898438 317.925781 L 81.8125 317.925781 Z M 81.8125 250.789062 " clip-rule="nonzero"/></clipPath><clipPath id="3e1ae1b7f4"><path d="M 176.367188 317.925781 L 81.835938 250.910156 L 270.898438 250.910156 Z M 176.367188 317.925781 " clip-rule="nonzero"/></clipPath><clipPath id="95bf9a8277"><path d="M 0.8125 0.800781 L 189.898438 0.800781 L 189.898438 67.925781 L 0.8125 67.925781 Z M 0.8125 0.800781 " clip-rule="nonzero"/></clipPath><clipPath id="396030613e"><path d="M 95.367188 67.925781 L 0.835938 0.910156 L 189.898438 0.910156 Z M 95.367188 67.925781 " clip-rule="nonzero"/></clipPath><clipPath id="8c5446d176"><rect x="0" width="190" y="0" height="68"/></clipPath><clipPath id="2e01882bb4"><path d="M 81.847656 249.683594 L 193.035156 249.683594 L 193.035156 291.113281 L 81.847656 291.113281 Z M 81.847656 249.683594 " clip-rule="nonzero"/></clipPath><clipPath id="ae0af9ff25"><path d="M 137.472656 291.113281 L 81.910156 249.757812 L 193.035156 249.757812 Z M 137.472656 291.113281 " clip-rule="nonzero"/></clipPath><clipPath id="ca81fd919e"><path d="M 0.847656 0.683594 L 112.035156 0.683594 L 112.035156 42.113281 L 0.847656 42.113281 Z M 0.847656 0.683594 " clip-rule="nonzero"/></clipPath><clipPath id="1c61ec30ed"><path d="M 56.472656 42.113281 L 0.910156 0.757812 L 112.035156 0.757812 Z M 56.472656 42.113281 " clip-rule="nonzero"/></clipPath><clipPath id="9235b751a9"><rect x="0" width="113" y="0" height="43"/></clipPath><clipPath id="26a91b3b94"><path d="M 81.480469 213.246094 L 178.648438 213.246094 L 178.648438 252.605469 L 81.480469 252.605469 Z M 81.480469 213.246094 " clip-rule="nonzero"/></clipPath><clipPath id="5011f518cd"><path d="M 130.03125 213.246094 L 178.582031 252.53125 L 81.480469 252.53125 Z M 130.03125 213.246094 " clip-rule="nonzero"/></clipPath><clipPath id="3bf6f30e3b"><path d="M 0.480469 0.246094 L 97.648438 0.246094 L 97.648438 39.605469 L 0.480469 39.605469 Z M 0.480469 0.246094 " clip-rule="nonzero"/></clipPath><clipPath id="cf78218545"><path d="M 49.03125 0.246094 L 97.582031 39.53125 L 0.480469 39.53125 Z M 49.03125 0.246094 " clip-rule="nonzero"/></clipPath><clipPath id="bba8722d28"><rect x="0" width="98" y="0" height="40"/></clipPath><clipPath id="05b7061339"><path d="M 81 252 L 174 252 L 174 319 L 81 319 Z M 81 252 " clip-rule="nonzero"/></clipPath><clipPath id="1db21b2b5f"><path d="M 105.660156 219.488281 L 197.601562 286.203125 L 173.78125 319.03125 L 81.839844 252.316406 Z M 105.660156 219.488281 " clip-rule="nonzero"/></clipPath><clipPath id="339cfc47d0"><path d="M 151.570312 252.800781 L 173.703125 318.882812 L 81.882812 252.253906 Z M 151.570312 252.800781 " clip-rule="nonzero"/></clipPath><clipPath id="09ccd9b464"><path d="M 0.839844 0.238281 L 92.761719 0.238281 L 92.761719 66.960938 L 0.839844 66.960938 Z M 0.839844 0.238281 " clip-rule="nonzero"/></clipPath><clipPath id="d4adb17f3f"><path d="M 24.660156 -32.511719 L 116.601562 34.203125 L 92.78125 67.03125 L 0.839844 0.316406 Z M 24.660156 -32.511719 " clip-rule="nonzero"/></clipPath><clipPath id="c6edefad31"><path d="M 70.570312 0.800781 L 92.703125 66.882812 L 0.882812 0.253906 Z M 70.570312 0.800781 " clip-rule="nonzero"/></clipPath><clipPath id="fb02c8551c"><rect x="0" width="93" y="0" height="67"/></clipPath><clipPath id="810a57d74e"><path d="M 127.667969 213.191406 L 174.660156 213.191406 L 174.660156 320.578125 L 127.667969 320.578125 Z M 127.667969 213.191406 " clip-rule="nonzero"/></clipPath><clipPath id="a85545464c"><path d="M 127.667969 266.914062 L 174.578125 213.246094 L 174.578125 320.578125 Z M 127.667969 266.914062 " clip-rule="nonzero"/></clipPath><clipPath id="69dc17650d"><path d="M 0.667969 0.191406 L 47.660156 0.191406 L 47.660156 107.578125 L 0.667969 107.578125 Z M 0.667969 0.191406 " clip-rule="nonzero"/></clipPath><clipPath id="1598be7caa"><path d="M 0.667969 53.914062 L 47.578125 0.246094 L 47.578125 107.578125 Z M 0.667969 53.914062 " clip-rule="nonzero"/></clipPath><clipPath id="037f48d592"><rect x="0" width="48" y="0" height="108"/></clipPath><clipPath id="4347bd59fa"><path d="M 82.445312 180.0625 L 129.015625 180.0625 L 129.015625 250.828125 L 82.445312 250.828125 Z M 82.445312 180.0625 " clip-rule="nonzero"/></clipPath><clipPath id="536f46f507"><path d="M 129.015625 215.421875 L 82.527344 250.78125 L 82.527344 180.0625 Z M 129.015625 215.421875 " clip-rule="nonzero"/></clipPath><clipPath id="50ac860ccb"><path d="M 0.445312 0.0625 L 47.015625 0.0625 L 47.015625 70.800781 L 0.445312 70.800781 Z M 0.445312 0.0625 " clip-rule="nonzero"/></clipPath><clipPath id="d910386f4d"><path d="M 47.015625 35.421875 L 0.527344 70.78125 L 0.527344 0.0625 Z M 47.015625 35.421875 " clip-rule="nonzero"/></clipPath><clipPath id="e1447956f4"><rect x="0" width="48" y="0" height="71"/></clipPath><clipPath id="9fa5aaf160"><path d="M 82.335938 180.046875 L 175.191406 180.046875 L 175.191406 216.011719 L 82.335938 216.011719 Z M 82.335938 180.046875 " clip-rule="nonzero"/></clipPath><clipPath id="d2d120e8ee"><path d="M 128.820312 216.011719 L 82.453125 180.113281 L 175.191406 180.113281 Z M 128.820312 216.011719 " clip-rule="nonzero"/></clipPath><clipPath id="84a322672f"><path d="M 0.335938 0.046875 L 93.191406 0.046875 L 93.191406 36.011719 L 0.335938 36.011719 Z M 0.335938 0.046875 " clip-rule="nonzero"/></clipPath><clipPath id="a6fe12aa39"><path d="M 46.820312 36.011719 L 0.453125 0.113281 L 93.191406 0.113281 Z M 46.820312 36.011719 " clip-rule="nonzero"/></clipPath><clipPath id="7fbe345ddb"><rect x="0" width="94" y="0" height="37"/></clipPath><clipPath id="31dfa65975"><path d="M 128.628906 180 L 175.199219 180 L 175.199219 250.730469 L 128.628906 250.730469 Z M 128.628906 180 " clip-rule="nonzero"/></clipPath><clipPath id="05311a3ab3"><path d="M 128.628906 215.371094 L 175.113281 180.011719 L 175.113281 250.730469 Z M 128.628906 215.371094 " clip-rule="nonzero"/></clipPath><clipPath id="f435c52e84"><path d="M 0.628906 0 L 47.199219 0 L 47.199219 70.730469 L 0.628906 70.730469 Z M 0.628906 0 " clip-rule="nonzero"/></clipPath><clipPath id="979800b7b9"><path d="M 0.628906 35.371094 L 47.113281 0.0117188 L 47.113281 70.730469 Z M 0.628906 35.371094 " clip-rule="nonzero"/></clipPath><clipPath id="a975cb278e"><rect x="0" width="48" y="0" height="71"/></clipPath><clipPath id="373fc8f4b0"><path d="M 174 216.164062 L 223.007812 216.164062 L 223.007812 320.535156 L 174 320.535156 Z M 174 216.164062 " clip-rule="nonzero"/></clipPath><clipPath id="755a510842"><path d="M 223.007812 268.304688 L 174.066406 320.449219 L 174.066406 216.164062 Z M 223.007812 268.304688 " clip-rule="nonzero"/></clipPath><clipPath id="0037a37604"><path d="M 0 0.164062 L 49.007812 0.164062 L 49.007812 104.535156 L 0 104.535156 Z M 0 0.164062 " clip-rule="nonzero"/></clipPath><clipPath id="d5cd34c44f"><path d="M 49.007812 52.304688 L 0.0664062 104.449219 L 0.0664062 0.164062 Z M 49.007812 52.304688 " clip-rule="nonzero"/></clipPath><clipPath id="4e3cb04fce"><rect x="0" width="50" y="0" height="105"/></clipPath><clipPath id="2efc4892f8"><path d="M 174 180.007812 L 220.554688 180.007812 L 220.554688 250.773438 L 174 250.773438 Z M 174 180.007812 " clip-rule="nonzero"/></clipPath><clipPath id="2b52a5530a"><path d="M 220.554688 215.367188 L 174.066406 250.726562 L 174.066406 180.007812 Z M 220.554688 215.367188 " clip-rule="nonzero"/></clipPath><clipPath id="396be69526"><path d="M 0 0.0078125 L 46.554688 0.0078125 L 46.554688 70.773438 L 0 70.773438 Z M 0 0.0078125 " clip-rule="nonzero"/></clipPath><clipPath id="21d70a7b33"><path d="M 46.554688 35.367188 L 0.0664062 70.726562 L 0.0664062 0.0078125 Z M 46.554688 35.367188 " clip-rule="nonzero"/></clipPath><clipPath id="20d918ac57"><rect x="0" width="47" y="0" height="71"/></clipPath><clipPath id="748aeedf77"><path d="M 174.070312 180 L 266.921875 180 L 266.921875 215.957031 L 174.070312 215.957031 Z M 174.070312 180 " clip-rule="nonzero"/></clipPath><clipPath id="d0d8529d38"><path d="M 220.554688 215.957031 L 174.183594 180.058594 L 266.921875 180.058594 Z M 220.554688 215.957031 " clip-rule="nonzero"/></clipPath><clipPath id="741181bce8"><path d="M 0.0703125 0 L 92.921875 0 L 92.921875 35.957031 L 0.0703125 35.957031 Z M 0.0703125 0 " clip-rule="nonzero"/></clipPath><clipPath id="602c325b71"><path d="M 46.554688 35.957031 L 0.183594 0.0585938 L 92.921875 0.0585938 Z M 46.554688 35.957031 " clip-rule="nonzero"/></clipPath><clipPath id="e14365667a"><rect x="0" width="93" y="0" height="36"/></clipPath><clipPath id="e1f7b5d9cb"><path d="M 221.445312 180.585938 L 268 180.585938 L 268 251.351562 L 221.445312 251.351562 Z M 221.445312 180.585938 " clip-rule="nonzero"/></clipPath><clipPath id="7cb32c2921"><path d="M 221.445312 215.992188 L 267.933594 180.632812 L 267.933594 251.351562 Z M 221.445312 215.992188 " clip-rule="nonzero"/></clipPath><clipPath id="66b9df2f1a"><path d="M 0.445312 0.585938 L 47 0.585938 L 47 71.351562 L 0.445312 71.351562 Z M 0.445312 0.585938 " clip-rule="nonzero"/></clipPath><clipPath id="e1f8062a56"><path d="M 0.445312 35.992188 L 46.933594 0.632812 L 46.933594 71.351562 Z M 0.445312 35.992188 " clip-rule="nonzero"/></clipPath><clipPath id="66d4a574d6"><rect x="0" width="47" y="0" height="72"/></clipPath><clipPath id="c07021777b"><path d="M 175 252 L 271 252 L 271 318 L 175 318 Z M 175 252 " clip-rule="nonzero"/></clipPath><clipPath id="7104611dce"><path d="M 152.945312 284.230469 L 248.363281 220.285156 L 270.941406 253.976562 L 175.523438 317.921875 Z M 152.945312 284.230469 " clip-rule="nonzero"/></clipPath><clipPath id="334eb872c7"><path d="M 200.636719 252.269531 L 270.863281 253.941406 L 175.484375 317.863281 Z M 200.636719 252.269531 " clip-rule="nonzero"/></clipPath><clipPath id="342033f3d2"><path d="M 0.441406 0.238281 L 95.960938 0.238281 L 95.960938 66 L 0.441406 66 Z M 0.441406 0.238281 " clip-rule="nonzero"/></clipPath><clipPath id="2ae3298d28"><path d="M -22.054688 32.230469 L 73.363281 -31.714844 L 95.941406 1.976562 L 0.523438 65.921875 Z M -22.054688 32.230469 " clip-rule="nonzero"/></clipPath><clipPath id="9b8c7f65d1"><path d="M 25.636719 0.269531 L 95.863281 1.941406 L 0.484375 65.863281 Z M 25.636719 0.269531 " clip-rule="nonzero"/></clipPath><clipPath id="988e67b33c"><rect x="0" width="96" y="0" height="66"/></clipPath><clipPath id="aaf0a46c7c"><path d="M 172 248 L 208 248 L 208 327 L 172 327 Z M 172 248 " clip-rule="nonzero"/></clipPath><clipPath id="723124ad35"><path d="M 172.367188 321.945312 L 187.351562 248.457031 L 207.925781 252.652344 L 192.941406 326.140625 Z M 172.367188 321.945312 " clip-rule="nonzero"/></clipPath><clipPath id="f4d75c8cdc"><path d="M 0.320312 0.398438 L 36 0.398438 L 36 74 L 0.320312 74 Z M 0.320312 0.398438 " clip-rule="nonzero"/></clipPath><clipPath id="61337a1b78"><path d="M 0.367188 73.945312 L 15.351562 0.457031 L 35.925781 4.652344 L 20.941406 78.140625 Z M 0.367188 73.945312 " clip-rule="nonzero"/></clipPath><clipPath id="84b6a10547"><path d="M 20.769531 78.105469 L 35.753906 4.617188 L 15.179688 0.421875 L 0.195312 73.910156 Z M 20.769531 78.105469 " clip-rule="nonzero"/></clipPath><clipPath id="aa383ede01"><rect x="0" width="36" y="0" height="79"/></clipPath><clipPath id="f4acc4fd8c"><path d="M 157 230.160156 L 192 230.160156 L 192 269 L 157 269 Z M 157 230.160156 " clip-rule="nonzero"/></clipPath><clipPath id="b51dc5be07"><path d="M 156.839844 230.160156 L 192.839844 230.160156 L 192.839844 269.160156 L 156.839844 269.160156 Z M 156.839844 230.160156 " clip-rule="nonzero"/></clipPath><clipPath id="8b98d74bdf"><path d="M 120 253 L 175 253 L 175 321 L 120 321 Z M 120 253 " clip-rule="nonzero"/></clipPath><clipPath id="c6344ad7cb"><path d="M 156.40625 330.460938 L 120.617188 262.847656 L 139.175781 253.023438 L 174.964844 320.636719 Z M 156.40625 330.460938 " clip-rule="nonzero"/></clipPath><clipPath id="4cb1da3716"><path d="M 156.40625 330.460938 L 120.617188 262.847656 L 139.175781 253.023438 L 174.964844 320.636719 Z M 156.40625 330.460938 " clip-rule="nonzero"/></clipPath></defs><g clip-path="url(#d4e34cfbae)"><g clip-path="url(#0a94829434)"><g transform="matrix(1, 0, 0, 1, 37, 43)"><g clip-path="url(#776c562732)"><g clip-path="url(#3889faa373)"><g clip-path="url(#e1370d125c)"><path fill="#519fb1" d="M 0.5 0.246094 L 264.878906 0.246094 L 264.878906 255.644531 L 0.5 255.644531 Z M 0.5 0.246094 " fill-opacity="1" fill-rule="nonzero"/></g></g></g></g></g></g><g clip-path="url(#dd5f66f8c9)"><g clip-path="url(#de03ae8774)"><g transform="matrix(1, 0, 0, 1, 209, 119)"><g clip-path="url(#c61aa5734f)"><g clip-path="url(#8a7949033c)"><g clip-path="url(#aae191c6d7)"><path fill="#ff9210" d="M 0.667969 0.273438 L 131.046875 0.273438 L 131.046875 126.226562 L 0.667969 126.226562 Z M 0.667969 0.273438 " fill-opacity="1" fill-rule="nonzero"/></g></g></g></g></g></g><g clip-path="url(#ededfb811f)"><g transform="matrix(1, 0, 0, 1, 124, 168)"><g clip-path="url(#058a725c88)"><g clip-path="url(#968a5f591f)"><path fill="#284c79" d="M 0.292969 0.976562 L 112.6875 0.976562 L 112.6875 44.179688 L 0.292969 44.179688 Z M 0.292969 0.976562 " fill-opacity="1" fill-rule="nonzero"/></g></g></g></g><g clip-path="url(#9ea8904cbb)"><g clip-path="url(#5fe432160d)"><g transform="matrix(1, 0, 0, 1, 78, 177)"><g clip-path="url(#27ccb9cc28)"><g clip-path="url(#dcfce5df54)"><g clip-path="url(#6ab89e0b31)"><path fill="#021226" d="M 0.625 0.96875 L 210.371094 0.96875 L 210.371094 166.695312 L 0.625 166.695312 Z M 0.625 0.96875 " fill-opacity="1" fill-rule="nonzero"/></g></g></g></g></g></g><g transform="matrix(1, 0, 0, 1, 114, 39)"><g clip-path="url(#d06bdd32da)"><g fill="#081526" fill-opacity="1"><g transform="translate(142.757301, 42.622891)"><g><path d="M -70.984375 -4.171875 C -58.316406 -4.171875 -47.148438 -1.945312 -37.484375 2.5 C -27.828125 6.945312 -20.273438 13.472656 -14.828125 22.078125 C -9.390625 30.691406 -6.671875 41.160156 -6.671875 53.484375 L -6.671875 117.484375 L -20.65625 117.484375 L -20.65625 53.328125 C -20.65625 43.328125 -22.796875 35.019531 -27.078125 28.40625 C -31.359375 21.800781 -37.273438 16.832031 -44.828125 13.5 C -52.378906 10.164062 -61.15625 8.5 -71.15625 8.5 C -81.15625 8.5 -89.929688 10.164062 -97.484375 13.5 C -105.035156 16.832031 -110.921875 21.800781 -115.140625 28.40625 C -119.367188 35.019531 -121.484375 43.328125 -121.484375 53.328125 L -121.484375 117.484375 L -135.3125 117.484375 L -135.3125 53.484375 C -135.3125 41.160156 -132.585938 30.691406 -127.140625 22.078125 C -121.703125 13.472656 -114.175781 6.945312 -104.5625 2.5 C -94.957031 -1.945312 -83.765625 -4.171875 -70.984375 -4.171875 Z M -70.984375 -4.171875 "/></g></g></g></g></g><g transform="matrix(1, 0, 0, 1, 103, 36)"><g clip-path="url(#98f0f9b10a)"><g fill="#ffffff" fill-opacity="1"><g transform="translate(143.351171, 43.006197)"><g><path d="M -70.984375 -4.171875 C -58.316406 -4.171875 -47.148438 -1.945312 -37.484375 2.5 C -27.828125 6.945312 -20.273438 13.472656 -14.828125 22.078125 C -9.390625 30.691406 -6.671875 41.160156 -6.671875 53.484375 L -6.671875 117.484375 L -20.65625 117.484375 L -20.65625 53.328125 C -20.65625 43.328125 -22.796875 35.019531 -27.078125 28.40625 C -31.359375 21.800781 -37.273438 16.832031 -44.828125 13.5 C -52.378906 10.164062 -61.15625 8.5 -71.15625 8.5 C -81.15625 8.5 -89.929688 10.164062 -97.484375 13.5 C -105.035156 16.832031 -110.921875 21.800781 -115.140625 28.40625 C -119.367188 35.019531 -121.484375 43.328125 -121.484375 53.328125 L -121.484375 117.484375 L -135.3125 117.484375 L -135.3125 53.484375 C -135.3125 41.160156 -132.585938 30.691406 -127.140625 22.078125 C -121.703125 13.472656 -114.175781 6.945312 -104.5625 2.5 C -94.957031 -1.945312 -83.765625 -4.171875 -70.984375 -4.171875 Z M -70.984375 -4.171875 "/></g></g></g></g></g><g clip-path="url(#9abc0ae4aa)"><g clip-path="url(#db4ab8265b)"><g transform="matrix(1, 0, 0, 1, 70, 168)"><g clip-path="url(#2e450d8ba4)"><g clip-path="url(#7acad9df25)"><g clip-path="url(#4397bbbcb2)"><path fill="#ffffff" d="M 0.757812 0.976562 L 208.839844 0.976562 L 208.839844 162.398438 L 0.757812 162.398438 Z M 0.757812 0.976562 " fill-opacity="1" fill-rule="nonzero"/></g></g></g></g></g></g><g clip-path="url(#a68ef436fa)"><g clip-path="url(#adf8392d79)"><path stroke-linecap="butt" transform="matrix(0.75, 0, 0, 0.75, 70.760647, 168.977317)" fill="none" stroke-linejoin="miter" d="M 9.00143 -0.00100587 L 268.069172 -0.00100587 C 270.454589 -0.00100587 272.746256 0.946911 274.433756 2.634411 C 276.121256 4.321911 277.069173 6.613578 277.069173 8.998995 L 277.069173 206.217771 C 277.069173 208.608396 276.121256 210.894855 274.433756 212.582355 C 272.746256 214.269855 270.454589 215.217772 268.069172 215.217772 L 9.00143 215.217772 C 6.610805 215.217772 4.324346 214.269855 2.636846 212.582355 C 0.949346 210.894855 0.00142893 208.608396 0.00142893 206.217771 L 0.00142893 8.998995 C 0.00142893 6.613578 0.949346 4.321911 2.636846 2.634411 C 4.324346 0.946911 6.610805 -0.00100587 9.00143 -0.00100587 Z M 9.00143 -0.00100587 " stroke="#9bdaff" stroke-width="20" stroke-opacity="1" stroke-miterlimit="4"/></g></g><g clip-path="url(#3f224c7b8c)"><g clip-path="url(#a8c190dc6a)"><g transform="matrix(1, 0, 0, 1, 78, 172)"><g clip-path="url(#65f14ab779)"><g clip-path="url(#8fe926b9d6)"><g clip-path="url(#7ae2c490de)"><path fill="#18485e" d="M 0.0859375 0.496094 L 193.304688 0.496094 L 193.304688 154.113281 L 0.0859375 154.113281 Z M 0.0859375 0.496094 " fill-opacity="1" fill-rule="nonzero"/></g></g></g></g></g></g><g mask="url(#cb478885f5)"><g transform="matrix(1, 0, 0, 1, 78, 177)"><g clip-path="url(#b332f10fbe)"><g clip-path="url(#e55527cce9)"><g><g clip-path="url(#a1bf40c54a)"><g clip-path="url(#38857e69b1)"><path fill="#0e294d" d="M 0.0859375 0.96875 L 200.746094 0.96875 L 200.746094 153.398438 L 0.0859375 153.398438 Z M 0.0859375 0.96875 " fill-opacity="1" fill-rule="nonzero"/></g></g></g></g></g></g></g><g clip-path="url(#816b564efd)"><g clip-path="url(#9a053df8c5)"><g transform="matrix(1, 0, 0, 1, 81, 177)"><g clip-path="url(#33cdd220ea)"><g clip-path="url(#a490359333)"><g clip-path="url(#9db340a0e3)"><path fill="#afd9ff" d="M 0.523438 0.96875 L 192.066406 0.96875 L 192.066406 149.113281 L 0.523438 149.113281 Z M 0.523438 0.96875 " fill-opacity="1" fill-rule="nonzero"/></g></g></g></g></g></g><g clip-path="url(#5d2f93b2df)"><g clip-path="url(#190696b68a)"><g transform="matrix(1, 0, 0, 1, 81, 177)"><g clip-path="url(#bdbea4dd8d)"><g clip-path="url(#5c33a735b8)"><g clip-path="url(#707bf623bf)"><path fill="#021226" d="M 0.523438 0.96875 L 188.089844 0.96875 L 188.089844 143.453125 L 0.523438 143.453125 Z M 0.523438 0.96875 " fill-opacity="1" fill-rule="nonzero"/></g></g></g></g></g></g><g clip-path="url(#0d35d8146d)"><g clip-path="url(#5afbe7210c)"><g transform="matrix(1, 0, 0, 1, 82, 180)"><g clip-path="url(#280bcf66bc)"><g clip-path="url(#6aa90650bf)"><g clip-path="url(#bb714a92e7)"><path fill="#284c79" d="M 95.007812 0.0585938 L 95.007812 76.390625 L -0.105469 76.390625 L -0.105469 0.0585938 Z M 95.007812 0.0585938 " fill-opacity="1" fill-rule="nonzero"/></g></g></g></g></g></g><g clip-path="url(#34dc5ab903)"><g clip-path="url(#919577312b)"><g transform="matrix(1, 0, 0, 1, 177, 177)"><g clip-path="url(#7cbe2241db)"><g clip-path="url(#0e71b5e4a8)"><g clip-path="url(#56ea060f47)"><path fill="#284c79" d="M 92.003906 0.855469 L 92.003906 77.183594 L -0.128906 77.183594 L -0.128906 0.855469 Z M 92.003906 0.855469 " fill-opacity="1" fill-rule="nonzero"/></g></g></g></g></g></g><g clip-path="url(#abea9eb729)"><g clip-path="url(#3e1ae1b7f4)"><g transform="matrix(1, 0, 0, 1, 81, 250)"><g clip-path="url(#8c5446d176)"><g clip-path="url(#95bf9a8277)"><g clip-path="url(#396030613e)"><path fill="#284c79" d="M 189.898438 67.925781 L 0.8125 67.925781 L 0.8125 0.789062 L 189.898438 0.789062 Z M 189.898438 67.925781 " fill-opacity="1" fill-rule="nonzero"/></g></g></g></g></g></g><g clip-path="url(#2e01882bb4)"><g clip-path="url(#ae0af9ff25)"><g transform="matrix(1, 0, 0, 1, 81, 249)"><g clip-path="url(#9235b751a9)"><g clip-path="url(#ca81fd919e)"><g clip-path="url(#1c61ec30ed)"><path fill="#35b495" d="M 112.035156 42.113281 L 0.847656 42.113281 L 0.847656 0.683594 L 112.035156 0.683594 Z M 112.035156 42.113281 " fill-opacity="1" fill-rule="nonzero"/></g></g></g></g></g></g><g clip-path="url(#26a91b3b94)"><g clip-path="url(#5011f518cd)"><g transform="matrix(1, 0, 0, 1, 81, 213)"><g clip-path="url(#bba8722d28)"><g clip-path="url(#3bf6f30e3b)"><g clip-path="url(#cf78218545)"><path fill="#5fa3bc" d="M 0.480469 0.246094 L 97.648438 0.246094 L 97.648438 39.605469 L 0.480469 39.605469 Z M 0.480469 0.246094 " fill-opacity="1" fill-rule="nonzero"/></g></g></g></g></g></g><g clip-path="url(#05b7061339)"><g clip-path="url(#1db21b2b5f)"><g clip-path="url(#339cfc47d0)"><g transform="matrix(1, 0, 0, 1, 81, 252)"><g clip-path="url(#fb02c8551c)"><g clip-path="url(#09ccd9b464)"><g clip-path="url(#d4adb17f3f)"><g clip-path="url(#c6edefad31)"><path fill="#9bdaff" d="M 24.660156 -32.511719 L 116.472656 34.109375 L 92.652344 66.9375 L 0.839844 0.316406 Z M 24.660156 -32.511719 " fill-opacity="1" fill-rule="nonzero"/></g></g></g></g></g></g></g></g><g clip-path="url(#810a57d74e)"><g clip-path="url(#a85545464c)"><g transform="matrix(1, 0, 0, 1, 127, 213)"><g clip-path="url(#037f48d592)"><g clip-path="url(#69dc17650d)"><g clip-path="url(#1598be7caa)"><path fill="#367992" d="M 0.667969 107.578125 L 0.667969 0.191406 L 47.660156 0.191406 L 47.660156 107.578125 Z M 0.667969 107.578125 " fill-opacity="1" fill-rule="nonzero"/></g></g></g></g></g></g><g clip-path="url(#4347bd59fa)"><g clip-path="url(#536f46f507)"><g transform="matrix(1, 0, 0, 1, 82, 180)"><g clip-path="url(#e1447956f4)"><g clip-path="url(#50ac860ccb)"><g clip-path="url(#d910386f4d)"><path fill="#55d6f2" d="M 47.015625 0.0625 L 47.015625 70.828125 L 0.445312 70.828125 L 0.445312 0.0625 Z M 47.015625 0.0625 " fill-opacity="1" fill-rule="nonzero"/></g></g></g></g></g></g><g clip-path="url(#9fa5aaf160)"><g clip-path="url(#d2d120e8ee)"><g transform="matrix(1, 0, 0, 1, 82, 180)"><g clip-path="url(#7fbe345ddb)"><g clip-path="url(#84a322672f)"><g clip-path="url(#a6fe12aa39)"><path fill="#94e9fb" d="M 93.191406 36.011719 L 0.476562 36.011719 L 0.476562 0.046875 L 93.191406 0.046875 Z M 93.191406 36.011719 " fill-opacity="1" fill-rule="nonzero"/></g></g></g></g></g></g><g clip-path="url(#31dfa65975)"><g clip-path="url(#05311a3ab3)"><g transform="matrix(1, 0, 0, 1, 128, 180)"><g clip-path="url(#a975cb278e)"><g clip-path="url(#f435c52e84)"><g clip-path="url(#979800b7b9)"><path fill="#3d8c9e" d="M 0.628906 70.730469 L 0.628906 -0.0351562 L 47.199219 -0.0351562 L 47.199219 70.730469 Z M 0.628906 70.730469 " fill-opacity="1" fill-rule="nonzero"/></g></g></g></g></g></g><g clip-path="url(#373fc8f4b0)"><g clip-path="url(#755a510842)"><g transform="matrix(1, 0, 0, 1, 174, 216)"><g clip-path="url(#4e3cb04fce)"><g clip-path="url(#0037a37604)"><g clip-path="url(#d5cd34c44f)"><path fill="#9bdaff" d="M 49.007812 0.164062 L 49.007812 104.535156 L -0.0195312 104.535156 L -0.0195312 0.164062 Z M 49.007812 0.164062 " fill-opacity="1" fill-rule="nonzero"/></g></g></g></g></g></g><g clip-path="url(#2efc4892f8)"><g clip-path="url(#2b52a5530a)"><g transform="matrix(1, 0, 0, 1, 174, 180)"><g clip-path="url(#20d918ac57)"><g clip-path="url(#396be69526)"><g clip-path="url(#21d70a7b33)"><path fill="#499dbc" d="M 46.554688 0.0078125 L 46.554688 70.773438 L -0.0195312 70.773438 L -0.0195312 0.0078125 Z M 46.554688 0.0078125 " fill-opacity="1" fill-rule="nonzero"/></g></g></g></g></g></g><g clip-path="url(#748aeedf77)"><g clip-path="url(#d0d8529d38)"><g transform="matrix(1, 0, 0, 1, 174, 180)"><g clip-path="url(#e14365667a)"><g clip-path="url(#741181bce8)"><g clip-path="url(#602c325b71)"><path fill="#6ecfe5" d="M 92.921875 35.957031 L 0.210938 35.957031 L 0.210938 -0.00390625 L 92.921875 -0.00390625 Z M 92.921875 35.957031 " fill-opacity="1" fill-rule="nonzero"/></g></g></g></g></g></g><g clip-path="url(#e1f7b5d9cb)"><g clip-path="url(#7cb32c2921)"><g transform="matrix(1, 0, 0, 1, 221, 180)"><g clip-path="url(#66d4a574d6)"><g clip-path="url(#66b9df2f1a)"><g clip-path="url(#e1f8062a56)"><path fill="#142e51" d="M 0.445312 71.351562 L 0.445312 0.585938 L 47.015625 0.585938 L 47.015625 71.351562 Z M 0.445312 71.351562 " fill-opacity="1" fill-rule="nonzero"/></g></g></g></g></g></g><g clip-path="url(#c07021777b)"><g clip-path="url(#7104611dce)"><g clip-path="url(#334eb872c7)"><g transform="matrix(1, 0, 0, 1, 175, 252)"><g clip-path="url(#988e67b33c)"><g clip-path="url(#342033f3d2)"><g clip-path="url(#2ae3298d28)"><g clip-path="url(#9b8c7f65d1)"><path fill="#021b3d" d="M -22.054688 32.230469 L 73.363281 -31.714844 L 95.941406 1.976562 L 0.523438 65.921875 Z M -22.054688 32.230469 " fill-opacity="1" fill-rule="nonzero"/></g></g></g></g></g></g></g></g><g clip-path="url(#aaf0a46c7c)"><g clip-path="url(#723124ad35)"><g transform="matrix(1, 0, 0, 1, 172, 248)"><g clip-path="url(#aa383ede01)"><g clip-path="url(#f4d75c8cdc)"><g clip-path="url(#61337a1b78)"><g clip-path="url(#84b6a10547)"><path fill="#8ddcee" d="M 35.8125 4.253906 L 15.445312 0.101562 L 0.386719 73.949219 Z M 35.8125 4.253906 " fill-opacity="1" fill-rule="nonzero"/></g></g></g></g></g></g></g><g clip-path="url(#f4acc4fd8c)"><path fill="#021226" d="M 185.503906 231.257812 C 185.503906 231.09375 185.511719 230.929688 185.519531 230.765625 C 185.515625 230.765625 185.507812 230.765625 185.503906 230.765625 L 174.660156 230.789062 L 163.8125 230.765625 C 163.808594 230.765625 163.8125 231.09375 163.8125 231.257812 C 163.8125 234.894531 161.039062 237.882812 157.492188 238.222656 C 158.859375 253.007812 164.746094 262.859375 174.574219 268.585938 C 174.601562 268.554688 174.628906 268.527344 174.660156 268.496094 C 174.6875 268.527344 174.714844 268.554688 174.742188 268.585938 C 184.570312 262.859375 190.460938 253.007812 191.828125 238.222656 C 188.277344 237.882812 185.503906 234.894531 185.503906 231.257812 Z M 185.503906 231.257812 " fill-opacity="1" fill-rule="nonzero"/></g><g clip-path="url(#b51dc5be07)"><path fill="#081526" d="M 174.574219 269.191406 C 174.46875 269.191406 174.363281 269.164062 174.269531 269.109375 C 169.222656 266.167969 165.207031 262.128906 162.335938 257.101562 C 159.402344 251.964844 157.570312 245.632812 156.886719 238.277344 C 156.859375 237.945312 157.101562 237.652344 157.433594 237.621094 C 159.007812 237.46875 160.464844 236.742188 161.535156 235.566406 C 162.613281 234.386719 163.210938 232.855469 163.210938 231.257812 C 163.210938 231.203125 163.207031 231.132812 163.207031 231.0625 C 163.207031 230.988281 163.207031 230.910156 163.207031 230.855469 C 163.207031 230.304688 163.566406 230.191406 163.722656 230.167969 C 163.753906 230.160156 163.785156 230.160156 163.816406 230.160156 L 174.660156 230.1875 L 185.503906 230.160156 C 185.53125 230.160156 185.566406 230.160156 185.597656 230.167969 L 185.613281 230.167969 C 185.925781 230.214844 186.144531 230.496094 186.125 230.808594 C 186.113281 230.960938 186.109375 231.113281 186.109375 231.257812 C 186.109375 232.855469 186.703125 234.386719 187.78125 235.566406 C 188.851562 236.742188 190.308594 237.46875 191.882812 237.621094 C 192.214844 237.652344 192.460938 237.945312 192.429688 238.277344 C 191.75 245.632812 189.917969 251.964844 186.984375 257.101562 C 184.113281 262.128906 180.097656 266.167969 175.046875 269.109375 C 174.925781 269.179688 174.789062 269.203125 174.660156 269.183594 C 174.632812 269.1875 174.601562 269.191406 174.574219 269.191406 Z M 174.660156 267.890625 C 174.679688 267.890625 174.703125 267.890625 174.726562 267.894531 C 179.453125 265.078125 183.222656 261.246094 185.933594 256.5 C 188.703125 251.648438 190.464844 245.675781 191.167969 238.742188 C 189.527344 238.453125 188.027344 237.628906 186.890625 236.386719 C 185.632812 235.007812 184.929688 233.234375 184.902344 231.371094 L 174.660156 231.394531 L 164.417969 231.371094 C 164.390625 233.234375 163.6875 235.007812 162.429688 236.386719 C 161.292969 237.628906 159.792969 238.453125 158.152344 238.742188 C 158.855469 245.675781 160.617188 251.648438 163.386719 256.5 C 166.097656 261.246094 169.867188 265.078125 174.59375 267.894531 C 174.613281 267.890625 174.636719 267.890625 174.660156 267.890625 Z M 174.660156 267.890625 " fill-opacity="1" fill-rule="nonzero"/></g><g clip-path="url(#8b98d74bdf)"><g clip-path="url(#c6344ad7cb)"><g clip-path="url(#4cb1da3716)"><path fill="#9bdaff" d="M 120.757812 263.085938 L 139.335938 253.25 L 175 320.617188 Z M 120.757812 263.085938 " fill-opacity="1" fill-rule="nonzero"/></g></g></g></svg>